<?xml version="1.0" encoding="UTF-8"?>
<svg width="150px" height="150px" viewBox="0 0 150 150" version="1.1" xmlns="http://www.w3.org/2000/svg" xmlns:xlink="http://www.w3.org/1999/xlink">
    <!-- Generator: Sketch 49.3 (51167) - http://www.bohemiancoding.com/sketch -->
    <title>cube</title>
    <desc>Created with Sketch.</desc>
    <defs></defs>
    <g id="Page-1" stroke="none" stroke-width="1" fill="none" fill-rule="evenodd">
        <g id="cube" fill-rule="nonzero">
            <path d="M72.6573943,50.5737305 C72.6573943,51.7868042 73.6415862,52.7698518 74.85466,52.7698518 C76.0677337,52.7698518 77.0519256,51.7868042 77.0519256,50.5737305 L77.0519256,47.644043 C77.0519256,46.4309692 76.0677337,45.4467773 74.85466,45.4467773 C73.6415862,45.4467773 72.6573943,46.4309692 72.6573943,47.644043 L72.6573943,50.5737305 Z" id="Shape" fill="#FFFFFF"></path>
            <path d="M72.6573943,60.825348 C72.6573943,62.0384215 73.6415862,63.0226137 74.85466,63.0226137 C76.0677337,63.0226137 77.0519256,62.0384215 77.0519256,60.825348 L77.0519256,57.8956605 C77.0519256,56.6825865 76.0677337,55.6995393 74.85466,55.6995393 C73.6415862,55.6995393 72.6573943,56.6825865 72.6573943,57.8956605 L72.6573943,60.825348 Z" id="Shape" fill="#FFFFFF"></path>
            <path d="M74.85466,42.5182342 C76.0677337,42.5182342 77.0519256,41.5351869 77.0519256,40.3209686 L77.0519256,37.3924254 C77.0519256,36.1782073 76.0677337,35.1951598 74.85466,35.1951598 C73.6415862,35.1951598 72.6573943,36.1782073 72.6573943,37.3924254 L72.6573943,40.3209686 C72.6573943,41.5351869 73.6415862,42.5182342 74.85466,42.5182342 Z" id="Shape" fill="#FFFFFF"></path>
            <path d="M2.19726563,41.728592 C3.41033936,41.728592 4.39338691,40.7444001 4.39338691,39.5313264 L4.39338691,4.39338691 L39.5313264,4.39338691 C40.7444001,4.39338691 41.728592,3.41033936 41.728592,2.19726563 C41.728592,0.983047559 40.7444001,0 39.5313264,0 L2.19726563,0 C0.984191895,0 0,0.983047559 0,2.19726563 L0,39.5313264 C0,40.7444001 0.983047559,41.728592 2.19726563,41.728592 Z" id="Shape" fill="#FFFFFF"></path>
            <path d="M39.5313264,145.606613 L4.39338691,145.606613 L4.39338691,110.468674 C4.39338691,109.2556 3.41033936,108.271408 2.19726563,108.271408 C0.984191895,108.271408 0,109.2556 0,110.468674 L0,147.802734 C0,149.016952 0.983047559,150 2.19726563,150 L39.5313264,150 C40.7444001,150 41.728592,149.016952 41.728592,147.802734 C41.728592,146.589661 40.7444001,145.606613 39.5313264,145.606613 Z" id="Shape" fill="#FFFFFF"></path>
            <path d="M147.512054,108.271408 C146.298981,108.271408 145.315933,109.2556 145.315933,110.468674 L145.315933,145.606613 L110.177994,145.606613 C108.96492,145.606613 107.980728,146.589661 107.980728,147.802734 C107.980728,149.016952 108.96492,150 110.177994,150 L147.512054,150 C148.726273,150 149.70932,149.016952 149.70932,147.802734 L149.70932,110.468674 C149.70932,109.2556 148.726273,108.271408 147.512054,108.271408 Z" id="Shape" fill="#FFFFFF"></path>
            <path d="M147.512054,0 L110.177994,0 C108.96492,0 107.980728,0.983047559 107.980728,2.19726563 C107.980728,3.41033936 108.96492,4.39338691 110.177994,4.39338691 L145.315933,4.39338691 L145.315933,39.5313264 C145.315933,40.7444001 146.298981,41.728592 147.512054,41.728592 C148.726273,41.728592 149.70932,40.7444001 149.70932,39.5313264 L149.70932,2.19726563 C149.70932,0.983047559 148.726273,0 147.512054,0 Z" id="Shape" fill="#FFFFFF"></path>
            <path d="M38.5173797,100.698853 C38.8538361,100.698853 39.1937256,100.622177 39.5130158,100.459671 L42.1222688,99.1298675 C43.2037354,98.5794067 43.6340332,97.2564697 43.0835725,96.1750031 C42.5319671,95.0946809 41.2090301,94.664383 40.1287078,95.2148438 L37.5183105,96.5446471 C36.4368439,97.0951081 36.0076904,98.4180451 36.5581512,99.4995117 C36.946106,100.260544 37.7174379,100.698853 38.5173797,100.698853 Z" id="Shape" fill="#FFFFFF"></path>
            <path d="M56.7878725,91.3913728 C57.1231843,91.3913728 57.4642181,91.3135529 57.7835083,91.1510467 L60.3927612,89.8212434 C61.4742278,89.2707826 61.9033813,87.9478453 61.3529206,86.8663787 C60.8024596,85.7860564 59.4795229,85.3557586 58.398056,85.907364 L55.7876587,87.2371673 C54.7073364,87.7876283 54.2770386,89.110565 54.8286439,90.1920319 C55.2165984,90.953064 55.9879304,91.3913728 56.7878725,91.3913728 Z" id="Shape" fill="#FFFFFF"></path>
            <path d="M47.6531982,96.045685 C47.9885101,96.045685 48.3295441,95.9678648 48.6476897,95.8053589 L51.2580873,94.4755553 C52.3384096,93.9250945 52.7687074,92.6021575 52.2182464,91.5206909 C51.6677856,90.4403687 50.3448486,90.0100708 49.263382,90.5605315 L46.6541291,91.8903352 C45.5726625,92.4407959 45.1423646,93.7648772 45.6939697,94.8451995 C46.0807799,95.6062318 46.8521118,96.045685 47.6531982,96.045685 Z" id="Shape" fill="#FFFFFF"></path>
            <path d="M65.9225464,86.7370605 C66.2578582,86.7370605 66.5988923,86.6603851 66.9181822,86.4978791 L69.5274352,85.1669312 C70.6089021,84.6164704 71.0391999,83.2935334 70.4875945,82.2120668 C69.9371338,81.1317445 68.6141968,80.702591 67.5327302,81.2530518 L64.9234772,82.5828551 C63.8420104,83.1333161 63.4117125,84.4562531 63.9633179,85.5377197 C64.3512727,86.2987518 65.1226043,86.7370605 65.9225464,86.7370605 Z" id="Shape" fill="#FFFFFF"></path>
            <path d="M109.580612,95.2148438 C108.499146,94.664383 107.177353,95.0935365 106.625748,96.1750031 C106.075287,97.2564697 106.505585,98.5794067 107.585907,99.1298675 L110.196304,100.459671 C110.515594,100.622177 110.856628,100.698853 111.19194,100.698853 C111.990738,100.698853 112.763214,100.260544 113.150024,99.4983674 C113.701629,98.4180451 113.271332,97.0951081 112.189865,96.5446471 L109.580612,95.2148438 Z" id="Shape" fill="#FFFFFF"></path>
            <path d="M100.445938,90.5605315 C99.3644713,90.0100708 98.0415346,90.4392243 97.4910735,91.5206909 C96.9394685,92.6021575 97.3697663,93.9250945 98.4512329,94.4755553 L101.060486,95.8053589 C101.38092,95.9678648 101.72081,96.0445403 102.056122,96.0445403 C102.856064,96.0445403 103.627396,95.6062318 104.01535,94.8451995 C104.566956,93.7637329 104.136658,92.4407959 103.055191,91.8903352 L100.445938,90.5605315 Z" id="Shape" fill="#FFFFFF"></path>
            <path d="M82.17659,81.2530518 C81.0951234,80.702591 79.7721861,81.1317445 79.2217254,82.2120668 C78.6701203,83.2935334 79.1004182,84.6164704 80.1807404,85.1669312 L82.7911377,86.4978791 C83.1104279,86.6603851 83.4514617,86.7370605 83.7867738,86.7370605 C84.5867156,86.7370605 85.3580476,86.2987518 85.7460023,85.5377197 C86.2964631,84.4562531 85.8673096,83.1333161 84.785843,82.5817107 L82.17659,81.2530518 Z" id="Shape" fill="#FFFFFF"></path>
            <path d="M91.311264,85.9062193 C90.2297974,85.3557586 88.9068604,85.7860564 88.3563996,86.8663787 C87.8047942,87.9478453 88.2350921,89.2707826 89.316559,89.8212434 L91.9258119,91.1510467 C92.2451019,91.3135529 92.5861359,91.3913728 92.9214478,91.3913728 C93.7213898,91.3913728 94.4927215,90.953064 94.8806763,90.1908873 C95.4322816,89.1094207 95.0019838,87.7876283 93.9205169,87.2360229 L91.311264,85.9062193 Z" id="Shape" fill="#FFFFFF"></path>
            <path d="M119.351578,111.790466 C120.991516,113.843537 123.513794,115.161896 126.33934,115.161896 C131.270599,115.161896 135.282898,111.149597 135.282898,106.218338 C135.282898,102.044678 132.409286,98.5301971 128.536606,97.5482941 L128.536606,85.2172852 C128.536606,84.0042114 127.552414,83.0200195 126.33934,83.0200195 C125.125122,83.0200195 124.142075,84.0042114 124.142075,85.2172852 L124.142075,97.5482941 C124.135208,97.5494385 124.128342,97.5517271 124.12262,97.5540161 C124.090576,97.5620271 124.058533,97.5711823 124.026489,97.5803376 C123.925781,97.6066588 123.826218,97.6352692 123.726654,97.6650237 C123.679733,97.679901 123.633957,97.6947785 123.58818,97.7096558 C123.503494,97.7371216 123.418808,97.7657317 123.335266,97.7954865 C123.287201,97.8126527 123.239136,97.8309633 123.191071,97.8492738 C123.108673,97.8790283 123.028564,97.9122161 122.947311,97.9454039 C122.901535,97.9637145 122.855759,97.9831696 122.809982,98.0026245 C122.723007,98.0392456 122.637176,98.0793 122.55249,98.1182098 C122.514725,98.1365203 122.476959,98.1525422 122.440338,98.1708527 C122.197723,98.288727 121.960831,98.4180451 121.730804,98.5565186 C121.694183,98.5782624 121.659851,98.6011506 121.624374,98.6228941 C121.54541,98.6721038 121.46759,98.7213135 121.389771,98.7728118 C121.348572,98.8002776 121.308517,98.8288881 121.268463,98.8563539 C121.19751,98.9055633 121.126556,98.9559173 121.056747,99.0074156 C121.016693,99.0360261 120.977783,99.0657806 120.937729,99.0955354 C120.866776,99.1493227 120.796966,99.2042543 120.728302,99.2603303 C120.692825,99.2889404 120.657349,99.3175506 120.621872,99.3473054 C120.541763,99.413681 120.462799,99.4823455 120.384979,99.5521547 C120.363236,99.5716096 120.340347,99.5910645 120.318604,99.6105193 C120.220184,99.6997834 120.122909,99.7924805 120.027923,99.8874665 C120.007324,99.9092104 119.98558,99.9309539 119.964981,99.9526978 C119.892883,100.027084 119.820785,100.101471 119.750977,100.177002 C119.720077,100.211334 119.689178,100.245667 119.659424,100.279999 C119.644547,100.296021 119.630814,100.312042 119.615936,100.328064 L118.715286,99.869156 C117.63382,99.3175506 116.312027,99.7478484 115.760422,100.829315 C115.209961,101.909637 115.639114,103.232575 116.720581,103.78418 L117.616654,104.240799 C117.607498,104.284286 117.597199,104.328918 117.588043,104.37355 C117.577743,104.42276 117.568588,104.47197 117.559433,104.521179 C117.542267,104.608154 117.526245,104.696274 117.511368,104.784393 C117.503357,104.83818 117.495346,104.891968 117.487335,104.944611 C117.474747,105.03273 117.464447,105.119705 117.454147,105.207825 C117.448425,105.261612 117.441559,105.314255 117.436981,105.366898 C117.427826,105.461883 117.420959,105.556869 117.415238,105.653 C117.412949,105.698776 117.408371,105.745697 117.407227,105.791473 C117.40036,105.93338 117.395783,106.075287 117.395783,106.218338 L117.395783,106.219482 C117.395783,106.363678 117.40036,106.507874 117.407227,106.652069 C117.408371,106.694412 117.412949,106.736755 117.415238,106.780243 C117.422104,106.880951 117.42897,106.982803 117.438126,107.083511 C117.442703,107.130432 117.448425,107.177353 117.454147,107.224274 C117.464447,107.321549 117.477035,107.418823 117.490768,107.514954 C117.497635,107.559586 117.504501,107.604217 117.511368,107.648849 C117.519379,107.694626 117.525101,107.741546 117.533112,107.787323 L81.5837859,126.101303 C80.6179046,124.993515 79.3968199,124.153519 78.0326842,123.63739 C77.9811858,123.617935 77.9285432,123.597336 77.8759002,123.577881 C77.7717592,123.54126 77.6687622,123.505783 77.5634766,123.472595 C77.438736,123.432541 77.3128509,123.39592 77.1858217,123.361588 C77.1411896,123.350143 77.0965576,123.334122 77.0519256,123.322678 L77.0519256,81.5242767 C77.0587922,81.521988 77.0656585,81.519699 77.0725251,81.5185547 C77.1034242,81.5105438 77.134323,81.5002441 77.1652222,81.4922332 C77.2670745,81.4647674 77.3677825,81.4373016 77.4684905,81.4064027 C77.5142669,81.3915252 77.5588989,81.3766479 77.603531,81.362915 C77.6893617,81.3343049 77.7751922,81.3056947 77.8598786,81.2759399 C77.9079437,81.2587737 77.9548646,81.2404632 78.0029297,81.2232973 C78.0853271,81.1923981 78.1665803,81.1592104 78.2478334,81.1260223 C78.2936098,81.1077117 78.3382415,81.0894012 78.3840179,81.0699463 C78.470993,81.0321809 78.5579681,80.9921265 78.6437988,80.9520721 C78.6804199,80.9349059 78.717041,80.9188843 78.7536621,80.9005737 C78.9974212,80.7826995 79.234314,80.6533813 79.4643401,80.5137633 C79.4986726,80.4931641 79.5330047,80.4714202 79.5673371,80.4496764 C79.6474456,80.400467 79.7264098,80.350113 79.8053742,80.29747 C79.8454283,80.2711488 79.8843384,80.243683 79.9243928,80.2162172 C79.9964906,80.1658629 80.0674438,80.1155092 80.1383971,80.0640105 C80.1773071,80.0342561 80.2162172,80.0056459 80.255127,79.9758911 C80.3272248,79.9221038 80.398178,79.8660278 80.4679869,79.8099519 C80.5023193,79.7813414 80.5377961,79.7538756 80.5721282,79.7252654 C80.6533813,79.6566009 80.7346345,79.586792 80.814743,79.5146941 C80.8341979,79.4975279 80.8547974,79.480362 80.8742522,79.4620515 C80.9738159,79.3716431 81.0710906,79.2778014 81.167221,79.1828156 C81.1866762,79.1633607 81.2049867,79.1427612 81.2255859,79.1233063 C81.2988281,79.0477752 81.3720703,78.9711 81.4441682,78.8932799 C81.4739227,78.8612367 81.5036774,78.8269043 81.5334319,78.7937165 C81.5929412,78.7261963 81.6524505,78.6586761 81.7096711,78.5900115 C81.7405699,78.5522461 81.771469,78.5144807 81.8023682,78.4767152 C81.8572998,78.409195 81.9122314,78.3393861 81.9648744,78.269577 C81.9934846,78.2318115 82.0232391,78.1940461 82.0507049,78.1562807 C82.1079255,78.0807495 82.1617125,78.0029297 82.2154998,77.9239655 C82.238388,77.8919221 82.2612762,77.8598786 82.2841644,77.8266908 C82.434082,77.603531 82.5736998,77.3735045 82.7030183,77.136612 C82.7224731,77.1011353 82.7407837,77.0656585 82.7602386,77.030182 C82.8037263,76.9466399 82.8472137,76.8619538 82.889557,76.7772674 C82.9113006,76.73378 82.9319001,76.6891479 82.9524993,76.6445159 C82.9891204,76.5655518 83.0257415,76.485443 83.0612183,76.4053345 C83.0806731,76.3595581 83.1012727,76.3126374 83.1207275,76.2657164 C83.15506,76.1833189 83.1871031,76.0997771 83.2191469,76.0162354 C83.2351685,75.9727477 83.253479,75.9281159 83.2695006,75.8834839 C83.3049773,75.7850648 83.3381654,75.6843568 83.3702086,75.5847932 C83.3805085,75.5550384 83.3908081,75.5252839 83.3999634,75.4966734 C83.4400178,75.3650666 83.4777832,75.2334595 83.51326,75.0995637 C83.5212709,75.0686646 83.5269929,75.0377654 83.5350035,75.0068666 C83.5601807,74.9038696 83.5853578,74.8008727 83.605957,74.697876 C83.6162566,74.6498109 83.6254119,74.6017456 83.6345672,74.5525359 C83.6517334,74.4644165 83.6688996,74.3762971 83.6826325,74.2858887 C83.6906432,74.2332457 83.6986541,74.180603 83.706665,74.1279604 C83.7192536,74.0398406 83.7306976,73.9517212 83.7398528,73.8636018 C83.7467194,73.8109588 83.7524414,73.7583161 83.757019,73.7056731 C83.7661743,73.6095428 83.7730406,73.514557 83.7799072,73.4184264 C83.7821959,73.37265 83.7856292,73.3268736 83.7879182,73.2810973 C83.7947845,73.1391908 83.7993621,72.9961395 83.7993621,72.8530884 C83.7993621,72.6894378 83.7936401,72.5269318 83.7856292,72.3655699 C83.7833405,72.3403931 83.7810516,72.3152162 83.7799072,72.2900391 C83.770752,72.1504213 83.759308,72.0096589 83.7444305,71.8711852 C83.7421418,71.8528746 83.7387085,71.8345641 83.7364195,71.8162535 C83.7203979,71.6686248 83.6997984,71.5221404 83.6746216,71.3768004 C83.6723326,71.3642121 83.6700439,71.3504792 83.6677553,71.3378906 C83.6425781,71.1868286 83.6128236,71.0380553 83.5796355,70.8904266 C83.5784912,70.8847046 83.5773469,70.880127 83.5762025,70.8755493 L119.610214,52.5169371 C120.57724,53.6247252 121.798325,54.4647217 123.161316,54.9808503 C123.213959,55.0003052 123.266602,55.0209047 123.319245,55.0403596 C123.422241,55.0769807 123.526383,55.1124574 123.630524,55.1456452 C123.755264,55.1856996 123.882294,55.2223207 124.009323,55.2566528 C124.053955,55.2680971 124.097443,55.2841187 124.143219,55.2955629 L124.143219,76.429367 C124.143219,77.6424407 125.126266,78.6254883 126.33934,78.6254883 C127.553558,78.6254883 128.536606,77.6424407 128.536606,76.429367 L128.536606,55.2921296 C132.409286,54.3102264 135.282898,50.7968903 135.282898,46.62323 C135.282898,41.6908266 131.271744,37.6796722 126.33934,37.6796722 C123.662567,37.6796722 121.258163,38.8629914 119.618225,40.7329559 L83.5750579,22.3709106 C83.7192536,21.7334748 83.7982178,21.0731508 83.7982178,20.3933716 C83.7982178,15.4621125 79.7859193,11.4498138 74.85466,11.4498138 C69.9234009,11.4498138 65.9111021,15.4621125 65.9111021,20.3933716 C65.9111021,21.0731508 65.9900666,21.7334748 66.134262,22.3709106 L58.9405061,26.035309 C57.8590395,26.5857697 57.4298859,27.9087067 57.9803467,28.9901733 C58.5308074,30.0704956 59.8548891,30.5007935 60.9352113,29.9503327 L68.125534,26.2870787 C69.3065643,27.6420592 70.866394,28.6010742 72.6047517,29.0496826 C72.6219176,29.0542603 72.6402281,29.0576936 72.6573943,29.0622712 L72.6573943,30.0682066 C72.6573943,31.282425 73.6415862,32.2654723 74.85466,32.2654723 C76.0677337,32.2654723 77.0519256,31.282425 77.0519256,30.0682066 L77.0519256,29.0622712 C77.0690918,29.0576936 77.0874023,29.0542603 77.1045686,29.0496826 C78.8429262,28.6010742 80.4027557,27.6420592 81.5837859,26.2870787 L117.617798,44.6456909 C117.616654,44.6514129 117.616654,44.6571352 117.614365,44.6628571 C117.582321,44.8093415 117.552567,44.9569702 117.526245,45.1068879 C117.523956,45.1206208 117.521667,45.1343537 117.519379,45.1480866 C117.495346,45.292282 117.474747,45.4376221 117.457581,45.5841064 C117.455292,45.6035613 117.453003,45.6218719 117.450714,45.6413268 C117.435837,45.7809448 117.423248,45.9205629 117.415238,46.061325 C117.412949,46.0865021 117.41066,46.1105347 117.409515,46.1345672 C117.40036,46.2959291 117.395783,46.4584351 117.395783,46.6220856 C117.395783,46.7868806 117.40036,46.9493865 117.409515,47.1107484 C117.41066,47.134781 117.412949,47.1588135 117.415238,47.182846 C117.423248,47.3236084 117.434692,47.4643708 117.450714,47.6039886 C117.453003,47.6234438 117.455292,47.6417543 117.457581,47.6600648 C117.474747,47.8076936 117.495346,47.9530336 117.519379,48.0983733 C117.521667,48.1121063 117.523956,48.1246948 117.526245,48.1372834 C117.552567,48.2883454 117.582321,48.4371185 117.615509,48.5847475 C117.616654,48.5904694 117.616654,48.5950471 117.617798,48.600769 L81.5837859,66.9582366 C80.4016113,65.6044008 78.8429262,64.6453857 77.1045686,64.1967773 C77.083969,64.1910554 77.0622252,64.1864777 77.041626,64.1807555 C76.9226074,64.151001 76.8024445,64.1223908 76.681137,64.098358 C76.6399383,64.0892027 76.5964509,64.0823364 76.5552521,64.0743255 C76.4511108,64.0537263 76.3481139,64.0342711 76.2439729,64.0182495 C76.1798859,64.0079499 76.1146547,64.0010833 76.0505678,63.991928 C75.964737,63.9804841 75.8789063,63.9678955 75.7919312,63.9587402 C75.7015228,63.949585 75.60997,63.943863 75.5184173,63.9369964 C75.4543304,63.9324188 75.3913881,63.9255524 75.3273012,63.9221191 C75.1705169,63.9141082 75.0125886,63.9095306 74.85466,63.9095306 C74.6955873,63.9095306 74.5376587,63.9141082 74.3808747,63.9221191 C74.3167878,63.9255524 74.2538452,63.9324188 74.1897583,63.9369964 C74.0982056,63.943863 74.0077972,63.949585 73.9162444,63.9587402 C73.8304137,63.9678955 73.7434389,63.9804841 73.6576081,63.991928 C73.5935212,64.0010833 73.5282896,64.0079499 73.4653474,64.0182495 C73.3600617,64.0342711 73.2570647,64.0537263 73.1529234,64.0743255 C73.111725,64.0823364 73.0682373,64.0892027 73.0270386,64.098358 C72.9057311,64.1223908 72.7855682,64.151001 72.6665496,64.1807555 C72.6459504,64.1864777 72.6242065,64.1910554 72.603607,64.1967773 C70.8652497,64.6453857 69.3065643,65.6044008 68.1243896,66.9582366 L32.0903777,48.600769 C32.0915221,48.5950471 32.0926667,48.5904694 32.093811,48.5847475 C32.1258545,48.4371185 32.155609,48.2883454 32.1819305,48.1384277 C32.1842194,48.1246948 32.1865081,48.1121063 32.1887971,48.0983733 C32.2128296,47.9530336 32.2334291,47.8076936 32.250595,47.6600648 C32.252884,47.6417543 32.256317,47.6234438 32.2574616,47.6039886 C32.2734832,47.4655151 32.2849274,47.3258971 32.2929381,47.1839906 C32.2952271,47.1599578 32.297516,47.134781 32.2986604,47.1107484 C32.3078156,46.9493865 32.3123933,46.7868806 32.3123933,46.62323 C32.3123933,46.4595794 32.3078156,46.2970734 32.2986604,46.1357115 C32.297516,46.1105347 32.2952271,46.0865021 32.2929381,46.061325 C32.2849274,45.9205629 32.2734832,45.7809448 32.2574616,45.6413268 C32.256317,45.6230162 32.252884,45.6047057 32.250595,45.5852508 C32.2334291,45.4387664 32.2139739,45.292282 32.1887971,45.1480866 C32.1865081,45.1343537 32.1842194,45.1206208 32.1819305,45.1068879 C32.155609,44.9569702 32.1258545,44.8081969 32.093811,44.6605682 C32.0926667,44.6559905 32.0915221,44.6502686 32.0903777,44.6456909 L53.1143188,33.9351653 C54.1946411,33.3835603 54.624939,32.0606232 54.0744782,30.980301 C53.5240172,29.8988344 52.1999358,29.4685365 51.1196136,30.0201416 L30.0910951,40.7329559 C28.4500122,38.8641357 26.0456086,37.6796722 23.3688354,37.6796722 C18.4375764,37.6796722 14.4252776,41.6919709 14.4252776,46.62323 C14.4252776,50.7968903 17.2988892,54.3113707 21.1715698,55.2932739 L21.1715698,65.3972625 C21.1715698,66.6103362 22.1546174,67.5933838 23.3688354,67.5933838 C24.5819092,67.5933838 25.5661011,66.6103362 25.5661011,65.3972625 L25.5661011,55.2955629 C25.6141664,55.2841187 25.6610871,55.2669524 25.7102965,55.2532195 C25.7881166,55.2326203 25.8659361,55.2085875 25.9437563,55.1856996 C27.5505064,54.7050475 28.9913177,53.7872314 30.0979614,52.5180817 L66.1319733,70.8755493 C66.0644531,71.176529 66.0129548,71.4809417 65.9763337,71.7876434 C65.9729004,71.8082429 65.9694671,71.8288421 65.9671784,71.8505859 C65.9545898,71.9650269 65.9465789,72.0794678 65.9374236,72.1939087 C65.9339906,72.2465514 65.927124,72.29805 65.9248354,72.3506927 C65.9145354,72.5189209 65.9099578,72.6860045 65.9099578,72.8530884 C65.9099578,77.0278931 68.7835693,80.5423737 72.65625,81.5242767 L72.65625,123.322678 C72.5955964,123.337555 72.5360871,123.359299 72.4742889,123.375321 C72.3827361,123.401642 72.2911834,123.427963 72.200775,123.456574 C72.0165252,123.51265 71.8357087,123.575592 71.6560365,123.644256 C71.6320037,123.654556 71.6079712,123.662567 71.5839387,123.671722 C70.2575684,124.191284 69.0696715,125.018692 68.1243896,126.101303 L32.1762085,107.787323 C32.1842194,107.741546 32.1899414,107.694626 32.196808,107.648849 C32.2048187,107.604217 32.2116853,107.559586 32.2185516,107.514954 C32.2322845,107.418823 32.2437287,107.321549 32.2551727,107.224274 C32.2597503,107.177353 32.2654723,107.130432 32.2700502,107.083511 C32.2803498,106.982803 32.2872161,106.880951 32.2940827,106.780243 C32.2963714,106.736755 32.2998047,106.694412 32.3020934,106.652069 C32.30896,106.507874 32.3135376,106.363678 32.3135376,106.219482 L32.3135376,106.218338 C32.3135376,106.061554 32.3078156,105.905914 32.2998047,105.751419 C32.297516,105.717087 32.2952271,105.682755 32.2929381,105.649567 C32.2849274,105.513382 32.2723389,105.379486 32.258606,105.24559 C32.256317,105.228424 32.2551727,105.212402 32.252884,105.195236 C32.2162629,104.871369 32.1624756,104.553223 32.0915221,104.241943 L32.9875945,103.78418 C34.0690611,103.233719 34.4982146,101.910782 33.9477539,100.829315 C33.3972932,99.7489928 32.0743562,99.3186949 30.9928893,99.869156 L30.0922395,100.329208 C29.3746948,99.5109557 28.5106658,98.8254548 27.5424958,98.3116148 C27.5402068,98.3104705 27.5379182,98.3093262 27.5356292,98.3081818 C27.4074554,98.2406616 27.2769929,98.1765747 27.1453857,98.1147768 C27.1282195,98.1067658 27.1121979,98.0987549 27.0950317,98.0907439 C26.9634246,98.0300903 26.8306731,97.9728697 26.695633,97.9179381 C26.6910554,97.9156494 26.6864777,97.9145051 26.6819001,97.9122161 C26.5365601,97.8538512 26.3900757,97.8000642 26.2413023,97.7497102 C26.2378693,97.7485658 26.234436,97.7474212 26.2310027,97.7462769 C26.0971069,97.7005005 25.9620668,97.6593018 25.825882,97.620392 C25.7915496,97.6112367 25.7583618,97.6020814 25.7240297,97.5917815 C25.6713867,97.5780486 25.6187438,97.5620271 25.5661011,97.5482941 L25.5661011,74.1851807 C25.5661011,72.9721069 24.5830535,71.9890594 23.3688354,71.9890594 C22.1557617,71.9890594 21.1727142,72.9721069 21.1727142,74.1851807 L21.1727142,97.5494385 C17.3000335,98.5313414 14.4264223,102.045822 14.4264223,106.219482 C14.4264223,111.150742 18.4375764,115.16304 23.3688354,115.16304 C26.195526,115.16304 28.7166595,113.843537 30.3577424,111.791611 L66.1319733,130.017471 C65.9877776,130.653763 65.9099578,131.315231 65.9099578,131.99501 C65.9099578,136.92627 69.9222565,140.938568 74.8535156,140.938568 C79.7859193,140.938568 83.7970734,136.92627 83.7970734,131.99501 C83.7970734,131.315231 83.718109,130.654907 83.5739136,130.017471 L119.351578,111.790466 Z M123.797607,102.446365 C124.523163,101.955414 125.398636,101.668167 126.33934,101.668167 C128.847885,101.668167 130.889511,103.709793 130.889511,106.218338 C130.889511,108.726883 128.847885,110.768509 126.33934,110.768509 C124.465942,110.768509 122.855759,109.629822 122.158813,108.009338 C122.123337,107.928085 122.094727,107.844543 122.064972,107.761002 C122.043228,107.701492 122.018051,107.643127 121.998596,107.582474 C121.973419,107.498932 121.953964,107.414246 121.933365,107.330704 C121.916199,107.266617 121.896744,107.203674 121.883011,107.138443 C121.866989,107.058334 121.857834,106.977081 121.84639,106.895828 C121.834946,106.824875 121.821213,106.755066 121.813202,106.682968 C121.799469,106.550217 121.794891,106.415176 121.792603,106.280136 C121.792603,106.259537 121.789169,106.238937 121.789169,106.218338 C121.789169,104.650497 122.586823,103.264618 123.797607,102.446365 Z M121.818924,46.1231232 C121.82579,46.0624693 121.837235,46.0041047 121.84639,45.9445954 C121.861267,45.8404541 121.878433,45.7363128 121.901321,45.6333161 C121.916199,45.5680846 121.934509,45.5028533 121.951675,45.4376221 C121.977997,45.3403474 122.006607,45.2430727 122.039795,45.1480866 C122.060394,45.0885773 122.082138,45.0290681 122.106171,44.9695588 C122.146225,44.8654175 122.192001,44.7624205 122.241211,44.6605682 C122.975921,43.1339265 124.534607,42.0730591 126.33934,42.0730591 C128.847885,42.0730591 130.889511,44.1146851 130.889511,46.62323 C130.889511,49.1317749 128.847885,51.1734009 126.33934,51.1734009 C126.199722,51.1734009 126.061249,51.1642456 125.92392,51.151657 C125.889587,51.1493684 125.8564,51.1447907 125.822067,51.1413574 C125.692749,51.1264802 125.564575,51.1081696 125.43869,51.0829925 C125.432968,51.0818481 125.426102,51.0807038 125.420379,51.0795592 C125.279617,51.050949 125.141144,51.0143279 125.006104,50.9719849 C124.991226,50.9685516 124.978638,50.9639739 124.964905,50.9593963 C123.984146,50.648117 123.146439,50.0118255 122.577667,49.1786956 C122.567367,49.1638184 122.558212,49.1477965 122.547913,49.1329192 C122.486115,49.0379332 122.42775,48.9406585 122.371673,48.8422395 C122.354508,48.8124847 122.337341,48.7815855 122.32132,48.7518311 C122.292709,48.6957551 122.267532,48.6385345 122.240067,48.5824585 C122.192001,48.4817505 122.14737,48.3810425 122.106171,48.2780455 C122.083283,48.2185365 122.061539,48.1578826 122.039795,48.097229 C122.007751,48.002243 121.979141,47.9061126 121.95282,47.8099822 C121.934509,47.744751 121.916199,47.6783754 121.901321,47.6119995 C121.878433,47.5101472 121.862411,47.4060059 121.84639,47.3030092 C121.837235,47.2423553 121.82579,47.1839906 121.818924,47.1233367 C121.800613,46.9585418 121.790314,46.7914582 121.790314,46.62323 C121.789169,46.4550018 121.800613,46.2879182 121.818924,46.1231232 Z M78.8715363,22.523117 C78.8566588,22.5528718 78.8406372,22.5814819 78.8246156,22.6100921 C78.767395,22.7108001 78.7078857,22.8103638 78.6437988,22.9064941 C78.6346436,22.9202271 78.6266326,22.93396 78.6174773,22.9476929 C78.0498504,23.7819671 77.2109985,24.4171143 76.2302399,24.7295379 C76.216507,24.7341155 76.2027741,24.7386932 76.1890412,24.7421265 C76.0528564,24.7844695 75.9155273,24.8199463 75.7747649,24.8497008 C75.7678986,24.8508454 75.7621764,24.8519897 75.7553101,24.8531341 C75.6305695,24.8783112 75.5012514,24.8966218 75.3730775,24.911499 C75.3387451,24.9149323 75.3044127,24.9183656 75.2712249,24.9217986 C75.1338958,24.9343872 74.9954224,24.9423981 74.85466,24.9423981 C74.7150422,24.9423981 74.5765688,24.9343872 74.4392396,24.9217986 C74.4049072,24.9183656 74.3705748,24.9149323 74.337387,24.911499 C74.2080688,24.8966218 74.079895,24.8783112 73.9540102,24.8531341 C73.9482879,24.8519897 73.9414216,24.8508454 73.9356996,24.8497008 C73.7949372,24.8199463 73.6564635,24.7844695 73.5214233,24.7421265 C73.5065461,24.7386932 73.4939575,24.7329712 73.4790803,24.7295379 C72.4983217,24.4171143 71.6606139,23.7808228 71.0918426,22.9465485 C71.0826873,22.93396 71.0746764,22.9190827 71.0655211,22.9053498 C71.0014342,22.8092194 70.9419252,22.7108001 70.8858489,22.6089478 C70.8698273,22.5803376 70.8526611,22.5528718 70.8377839,22.523117 C70.4990388,21.8868255 70.3056334,21.1624146 70.3056334,20.3933716 C70.3056334,17.8848267 72.346115,15.8432007 74.85466,15.8432007 C77.3632049,15.8432007 79.4048309,17.8848267 79.4048309,20.3933716 C79.4048309,21.1624146 79.2102814,21.8868255 78.8715363,22.523117 Z M27.8903962,47.1233367 C27.8835296,47.1839906 27.8720856,47.2434996 27.8629304,47.3030092 C27.8480531,47.4071502 27.8308869,47.5101472 27.8079987,47.6131438 C27.7931215,47.6795197 27.7748109,47.744751 27.7576447,47.8099822 C27.7313232,47.9061126 27.7027131,48.002243 27.669525,48.097229 C27.6489258,48.1578826 27.6260376,48.2185365 27.6031494,48.2780455 C27.563095,48.3810425 27.5173187,48.4828948 27.4692536,48.5824585 C26.8753052,49.8207094 25.7400513,50.751114 24.3713379,51.0612486 C24.3644713,51.0623933 24.3587493,51.0646819 24.351883,51.0658266 C24.2637633,51.0852814 24.1733552,51.101303 24.0829468,51.1150359 C24.0634919,51.1184692 24.0451813,51.1219025 24.0268708,51.1253355 C23.9433287,51.1379241 23.8586426,51.1447907 23.7739564,51.1528014 C23.7487793,51.1550903 23.7236021,51.1585236 23.6984253,51.1608123 C23.5897063,51.1688232 23.4798431,51.1734009 23.3688354,51.1734009 C20.8602905,51.1734009 18.8198089,49.1317749 18.8198089,46.62323 C18.8198089,44.1146851 20.8602905,42.0730591 23.3688354,42.0730591 C25.1758576,42.0730591 26.7356871,43.1350708 27.4692536,44.6640015 C27.5173187,44.7635651 27.5619507,44.8654175 27.6031494,44.9684145 C27.6260376,45.0279234 27.6477814,45.0885773 27.669525,45.149231 C27.7027131,45.244217 27.7301789,45.3403474 27.7565004,45.4364777 C27.7748109,45.501709 27.7931215,45.5669402 27.8079987,45.6333161 C27.8308869,45.7363128 27.8469085,45.8404541 27.8629304,45.9434508 C27.8720856,46.0041047 27.8835296,46.0624693 27.8903962,46.1231232 C27.9087067,46.2879182 27.9190063,46.4550018 27.9190063,46.62323 C27.9201507,46.7914582 27.9087067,46.9585418 27.8903962,47.1233367 Z M27.9167174,106.280136 C27.915573,106.415176 27.9098511,106.550217 27.8961182,106.682968 C27.8892516,106.755066 27.8743743,106.824875 27.8640747,106.895828 C27.8514861,106.975937 27.8423309,107.058334 27.8263093,107.138443 C27.8125764,107.203674 27.7931215,107.266617 27.7770996,107.330704 C27.7553558,107.414246 27.7370452,107.498932 27.710724,107.582474 C27.6912688,107.643127 27.6672363,107.701492 27.6454925,107.761002 C27.6145934,107.844543 27.5859832,107.928085 27.5516511,108.009338 C26.8547057,109.629822 25.2433775,110.768509 23.3699798,110.768509 C20.8614349,110.768509 18.8209535,108.726883 18.8209535,106.218338 C18.8209535,103.709793 20.8614349,101.668167 23.3699798,101.668167 C24.3106843,101.668167 25.1861572,101.955414 25.9128571,102.446365 C27.1224976,103.264618 27.9201507,104.650497 27.9201507,106.218338 C27.9201507,106.238937 27.9167174,106.259537 27.9167174,106.280136 Z M70.3056334,72.8530884 C70.3056334,72.6860045 70.3159333,72.5212096 70.3342438,72.3564146 C70.3365325,72.3369598 70.3365325,72.3163605 70.3388215,72.2969057 C70.357132,72.1492767 70.3845979,72.0027923 70.4177856,71.8585969 C70.424652,71.8242645 70.4315186,71.7887877 70.4406738,71.7544556 C70.4738616,71.6194154 70.5162047,71.4866637 70.5619811,71.3550568 C70.5757143,71.3161468 70.5883025,71.2760924 70.6031801,71.238327 C70.6523895,71.1101531 70.7084654,70.9842683 70.7691193,70.8606721 C70.7920075,70.8137514 70.8137514,70.767975 70.8377839,70.723343 C70.8526611,70.6935882 70.8698273,70.664978 70.8847046,70.6363679 C70.9419252,70.5356599 71.0014342,70.4360962 71.0655211,70.3399658 C71.0746764,70.3262329 71.0826873,70.3125 71.0918426,70.2987671 C71.6594695,69.4644929 72.4983217,68.8293457 73.4790803,68.5169221 C73.4928132,68.5123444 73.5065461,68.5077668 73.520279,68.5031892 C73.6553191,68.4619904 73.7937926,68.4253693 73.934555,68.3967592 C73.940277,68.3956146 73.9471436,68.3944702 73.9528655,68.3933259 C74.0787507,68.3681487 74.2069245,68.3498382 74.3362427,68.3349609 C74.3705748,68.3315276 74.4037629,68.32695 74.438095,68.3246613 C74.5754241,68.3120728 74.7138979,68.3029175 74.85466,68.3029175 C74.994278,68.3029175 75.1327515,68.3120728 75.2700806,68.3246613 C75.3044127,68.3280943 75.3376008,68.3315276 75.3719329,68.3349609 C75.5012514,68.3498382 75.6294252,68.3681487 75.7553101,68.3933259 C75.761032,68.3944702 75.7678986,68.3956146 75.7736206,68.3967592 C75.914383,68.4253693 76.0528564,68.4619904 76.1878969,68.5031892 C76.2016295,68.5077668 76.2153627,68.5123444 76.2290953,68.5169221 C77.2109985,68.8293457 78.0487061,69.4644929 78.6174773,70.2987671 C78.6254883,70.3125 78.6346436,70.3262329 78.6437988,70.3399658 C78.7078857,70.4360962 78.767395,70.5356599 78.823471,70.6363679 C78.8394929,70.664978 78.8566588,70.6935882 78.8715363,70.723343 C78.9024352,70.7805633 78.9287566,70.8400726 78.9562225,70.8995818 C79.0031432,70.9968568 79.0466309,71.0952759 79.0866853,71.1948396 C79.1107178,71.2566375 79.133606,71.3184357 79.1542055,71.3813783 C79.1862486,71.4740754 79.2148591,71.5679168 79.2400359,71.6629028 C79.2583465,71.730423 79.276657,71.7967986 79.2926789,71.8643188 C79.3144225,71.9661712 79.3315887,72.0680238 79.3464662,72.1710205 C79.3556215,72.2316741 79.3682098,72.2911834 79.373932,72.3529816 C79.3922426,72.5177766 79.4036865,72.6837158 79.4036865,72.8530884 C79.4036865,75.3616333 77.3620605,77.4032593 74.8535156,77.4032593 C72.346115,77.4032593 70.3056334,75.3616333 70.3056334,72.8530884 Z M74.85466,136.544037 C72.346115,136.544037 70.3056334,134.503555 70.3056334,131.99501 C70.3056334,131.223679 70.4990388,130.499268 70.8377839,129.862976 C70.8526611,129.834366 70.868683,129.808044 70.8835603,129.780579 C70.9407806,129.677582 71.0014342,129.575729 71.0678101,129.478455 C71.0746764,129.465866 71.0826873,129.454422 71.0906982,129.441833 C71.6594695,128.606415 72.4983217,127.970123 73.4802246,127.6577 C73.4928132,127.654266 73.5065461,127.649689 73.5191344,127.645111 C73.6553191,127.603912 73.7937926,127.567291 73.934555,127.538681 C73.940277,127.537537 73.9471436,127.536392 73.9528655,127.535248 C74.0787507,127.510071 74.2069245,127.49176 74.3362427,127.476883 C74.3705748,127.472305 74.4037629,127.468872 74.438095,127.466583 C74.5754241,127.453995 74.7138979,127.44484 74.85466,127.44484 C74.994278,127.44484 75.1327515,127.453995 75.2700806,127.466583 C75.3044127,127.468872 75.3376008,127.472305 75.3719329,127.476883 C75.5012514,127.49176 75.6305695,127.510071 75.7564544,127.535248 C75.7621764,127.536392 75.7678986,127.537537 75.7736206,127.538681 C75.914383,127.567291 76.0528564,127.603912 76.1890412,127.645111 C76.2027741,127.649689 76.2153627,127.654266 76.227951,127.6577 C77.2109985,127.970123 78.0498504,128.606415 78.6174773,129.441833 C78.6254883,129.454422 78.6334992,129.465866 78.6415102,129.478455 C78.7067414,129.576874 78.767395,129.677582 78.82576,129.780579 C78.8406372,129.808044 78.8555145,129.834366 78.870392,129.862976 C79.2102814,130.499268 79.4036865,131.224823 79.4036865,131.99501 C79.4048309,134.503555 77.3632049,136.544037 74.85466,136.544037 Z" id="Shape" fill="#707A23"></path>
        </g>
    </g>
</svg>