<?xml version="1.0" encoding="UTF-8"?>
<svg width="30px" height="30px" viewBox="0 0 30 30" version="1.1" xmlns="http://www.w3.org/2000/svg" xmlns:xlink="http://www.w3.org/1999/xlink">
    <!-- Generator: Sketch 49.3 (51167) - http://www.bohemiancoding.com/sketch -->
    <title>003-instagram-logo</title>
    <desc>Created with Sketch.</desc>
    <defs></defs>
    <g id="Page-1" stroke="none" stroke-width="1" fill="none" fill-rule="evenodd">
        <g id="iPhone-X" transform="translate(-137.000000, -691.000000)" fill="#FFFFFF" fill-rule="nonzero">
            <g id="Group-8" transform="translate(54.000000, 681.000000)">
                <g id="Group-7" transform="translate(73.000000, 0.000000)">
                    <g id="003-instagram-logo" transform="translate(10.000000, 10.000000)">
                        <path d="M21.7209071,0 L8.27873798,0 C3.71384463,0 0,3.71402207 0,8.27891543 L0,21.7210846 C0,26.2861554 3.71384463,30 8.27873798,30 L21.7209071,30 C26.2861554,30 30,26.2859779 30,21.7210846 L30,8.27891543 C30.0001774,3.71402207 26.2861554,0 21.7209071,0 Z M27.3384321,21.7210846 C27.3384321,24.818469 24.818469,27.3382546 21.7210846,27.3382546 L8.27873798,27.3382546 C5.18153104,27.3384321 2.6617454,24.818469 2.6617454,21.7210846 L2.6617454,8.27891543 C2.6617454,5.18170849 5.18153104,2.6617454 8.27873798,2.6617454 L21.7209071,2.6617454 C24.8182915,2.6617454 27.3382546,5.18170849 27.3382546,8.27891543 L27.3382546,21.7210846 L27.3384321,21.7210846 Z" id="Shape"></path>
                        <path d="M14.5,7 C10.3644377,7 7,10.3645149 7,14.5001722 C7,18.6356572 10.3644377,22 14.5,22 C18.6355623,22 22,18.6356572 22,14.5001722 C22,10.3645149 18.6355623,7 14.5,7 Z M14.5,19.4173018 C11.7885821,19.4173018 9.58246677,17.2114802 9.58246677,14.5 C9.58246677,11.7883476 11.7884099,9.58235389 14.5,9.58235389 C17.2115901,9.58235389 19.4175332,11.7883476 19.4175332,14.5 C19.4175332,17.2114802 17.2114179,19.4173018 14.5,19.4173018 Z" id="Shape"></path>
                        <path d="M23,5 C22.4745455,5 21.9583636,5.21272727 21.5872727,5.58545455 C21.2143636,5.95636364 21,6.47272727 21,7 C21,7.52563636 21.2145455,8.04181818 21.5872727,8.41454545 C21.9581818,8.78545455 22.4745455,9 23,9 C23.5272727,9 24.0418182,8.78545455 24.4145455,8.41454545 C24.7872727,8.04181818 25,7.52545455 25,7 C25,6.47272727 24.7872727,5.95636364 24.4145455,5.58545455 C24.0436364,5.21272727 23.5272727,5 23,5 Z" id="Shape"></path>
                    </g>
                </g>
            </g>
        </g>
    </g>
</svg>