<?xml version="1.0" encoding="UTF-8"?>
<svg width="150px" height="134px" viewBox="0 0 150 134" version="1.1" xmlns="http://www.w3.org/2000/svg" xmlns:xlink="http://www.w3.org/1999/xlink">
    <!-- Generator: Sketch 49.3 (51167) - http://www.bohemiancoding.com/sketch -->
    <title>react</title>
    <desc>Created with Sketch.</desc>
    <defs></defs>
    <g id="Page-1" stroke="none" stroke-width="1" fill="none" fill-rule="evenodd">
        <g id="react" fill="#00D8FF" fill-rule="nonzero">
            <circle id="Oval" cx="75" cy="66.5008881" r="13.374778"></circle>
            <path d="M75,97.1403197 C56.2166963,97.1403197 39.8046181,94.928952 27.5222025,90.7193606 C19.5559503,88.0017762 12.7886323,84.3783304 7.96625222,80.2486679 C2.85079929,75.8792185 0.13321492,71.1101243 0.13321492,66.5008881 C0.13321492,57.6554174 9.8312611,48.9964476 26.1101243,43.348135 C39.4316163,38.7122558 56.8028419,36.1278863 74.973357,36.1278863 C92.8241563,36.1278863 109.955595,38.6323268 123.197158,43.2149201 C130.950266,45.8792185 137.477798,49.3428064 142.113677,53.1793961 C147.149201,57.3889876 149.813499,61.9982238 149.813499,66.5008881 C149.813499,75.6927176 138.969805,84.991119 121.492007,90.7726465 C109.129663,94.8756661 92.6110124,97.1403197 75,97.1403197 Z M75,42.5222025 C57.7619893,42.5222025 40.7104796,45.026643 28.2415631,49.3694494 C13.268206,54.5914742 6.55417407,61.731794 6.55417407,66.5008881 C6.55417407,71.4564831 13.7744227,79.2628774 29.6003552,84.6714032 C41.2166963,88.6412078 56.9360568,90.7460036 75,90.7460036 C91.9449378,90.7460036 107.744227,88.6145648 119.493783,84.6980462 C135.932504,79.2362345 143.445826,71.4298401 143.445826,66.5008881 C143.445826,63.9698046 141.527531,60.9857904 138.0373,58.0817052 C134.01421,54.7246892 128.152753,51.660746 121.145648,49.2362345 C108.543517,44.920071 92.1580817,42.5222025 75,42.5222025 Z" id="Shape"></path>
            <path d="M44.6536412,133.161634 C41.9360568,133.161634 39.5381883,132.575488 37.5133215,131.403197 C29.8667851,126.980462 27.2024867,114.245115 30.4262877,97.3268206 C33.0639432,83.4458259 39.5115453,67.1403197 48.5968028,51.3943162 C57.5222025,35.9413854 68.2326821,22.3534636 78.8099467,13.1616341 C84.991119,7.77975133 91.2522202,3.8365897 96.9005329,1.75843694 C103.055062,-0.506216696 108.383659,-0.506216696 112.273535,1.73179396 C120.239787,6.31438721 122.877442,20.3818828 119.147425,38.39254 C116.509769,51.1811723 110.222025,66.60746 101.42984,81.8738899 C92.0515098,98.1261101 81.9271758,111.234458 72.1492007,119.786856 C65.8081705,125.328597 59.2806394,129.37833 53.312611,131.483126 C50.1953819,132.602131 47.2646536,133.161634 44.6536412,133.161634 Z M51.3410302,52.9928952 L54.1119005,54.5914742 C45.5062167,69.5115453 39.1385435,85.5239787 36.687389,98.5257549 C33.7300178,114.111901 36.5808171,123.490231 40.6838366,125.861456 C41.69627,126.447602 43.0284192,126.767318 44.6536412,126.767318 C49.955595,126.767318 58.294849,123.410302 67.9396092,114.991119 C77.1847247,106.918295 86.8561279,94.3428064 95.8880995,78.7033748 C104.360568,64.0230906 110.381883,49.2628774 112.886323,37.1403197 C116.376554,20.1687389 113.365897,9.77797513 109.076377,7.30017762 C106.891652,6.04795737 103.348135,6.20781528 99.0852575,7.77975133 C94.1563055,9.59147425 88.5879218,13.1349911 82.9928952,18.0106572 C72.9484902,26.749556 62.6909414,39.7513321 54.1119005,54.6181172 L51.3410302,52.9928952 Z" id="Shape"></path>
            <path d="M105.346359,133.241563 C98.0994671,133.241563 88.9076377,128.872114 79.3161634,120.612789 C68.6056838,111.394316 57.7087034,97.6731794 48.5968028,81.9271758 C39.6447602,66.4742451 33.250444,50.4085258 30.5595027,36.634103 C28.9875666,28.5879218 28.6944938,21.2078153 29.7069272,15.2664298 C30.8259325,8.79218472 33.4635879,4.18294849 37.3801066,1.91829485 C45.3197158,-2.69094139 58.8277087,2.05150977 72.5754885,14.2806394 C82.3268206,22.9396092 92.5577265,36.1012433 101.376554,51.3410302 C110.781528,67.5932504 117.095915,82.9129663 119.600355,95.6483126 C121.225577,103.907638 121.492007,111.580817 120.346359,117.815275 C119.120782,124.449378 116.349911,129.165187 112.353464,131.483126 C110.35524,132.655417 107.984014,133.241563 105.346359,133.241563 Z M54.1385435,78.7300178 C62.7708703,93.6500888 73.4813499,107.158082 83.4991119,115.763766 C95.5150977,126.101243 105.053286,128.339254 109.182948,125.941385 C113.472469,123.463588 116.616341,113.312611 113.365897,96.9005329 C110.968028,84.8579041 104.920071,70.2042629 95.8614565,54.5648313 C87.3623446,39.8845471 77.5843694,27.2824156 68.339254,19.0763766 C55.3907638,7.56660746 44.8934281,4.98223801 40.6039076,7.46003552 C38.4191829,8.71225577 36.7939609,11.8827709 36.0213144,16.3587922 C35.1420959,21.5275311 35.4085258,28.1349911 36.8472469,35.4085258 C39.4049734,48.4902309 45.5328597,63.8632327 54.1385435,78.7300178 Z" id="Shape"></path>
        </g>
    </g>
</svg>