<?xml version="1.0" encoding="UTF-8"?>
<svg width="60px" height="45px" viewBox="0 0 60 45" version="1.1" xmlns="http://www.w3.org/2000/svg" xmlns:xlink="http://www.w3.org/1999/xlink">
    <!-- Generator: Sketch 49.3 (51167) - http://www.bohemiancoding.com/sketch -->
    <title>code</title>
    <desc>Created with Sketch.</desc>
    <defs></defs>
    <g id="Page-1" stroke="none" stroke-width="1" fill="none" fill-rule="evenodd">
        <g id="code" fill="#FFFFFF" fill-rule="nonzero">
            <path d="M37.3723136,0.631259542 L35.3410325,0.0754580153 C35.0795793,-0.0115648855 34.8220268,0.0158015267 34.571587,0.157328244 C34.3203442,0.298969466 34.1506692,0.511603053 34.0634799,0.794885496 L21.846195,42.9996183 C21.7590057,43.2830153 21.7863098,43.5502672 21.9282218,43.8005725 C22.0701338,44.0513359 22.2827151,44.220229 22.5669981,44.3072519 L24.5977055,44.8632824 C24.8597323,44.9509924 25.1163671,44.9235115 25.3674952,44.7817557 C25.618738,44.6394275 25.7880688,44.4274809 25.8751434,44.1446565 L38.0927725,1.93923664 C38.179847,1.6559542 38.1527725,1.38870229 38.010631,1.13782443 C37.8686042,0.887061069 37.6562524,0.718167939 37.3723136,0.631259542 Z" id="Shape"></path>
            <path d="M19.0631358,8.87003817 C19.0631358,8.58675573 18.953805,8.33587786 18.7354876,8.1180916 L17.0975908,6.48343511 C16.8792734,6.26553435 16.6280306,6.15629771 16.3442065,6.15629771 C16.0603824,6.15629771 15.8090249,6.26564885 15.5908222,6.48343511 L0.327648184,21.7174809 C0.108986616,21.9353817 0,22.186145 0,22.4694275 C0,22.7527099 0.109330784,23.0034733 0.327648184,23.2212595 L15.5907075,38.4553053 C15.8089101,38.6735496 16.0598088,38.7820992 16.3440918,38.7820992 C16.6283748,38.7820992 16.8792734,38.6732061 17.0974761,38.4553053 L18.7353728,36.8215649 C18.9536902,36.6037786 19.063021,36.3529008 19.063021,36.0692748 C19.063021,35.7863359 18.9536902,35.5355725 18.7353728,35.3177863 L5.86313576,22.4694275 L18.7354876,9.62198473 C18.9541491,9.40419847 19.0631358,9.15332061 19.0631358,8.87003817 Z" id="Shape"></path>
            <path d="M59.6115488,21.7171374 L44.3480306,6.4830916 C44.1298279,6.26530534 43.8784704,6.1559542 43.5951052,6.1559542 C43.3108222,6.1559542 43.0603824,6.26530534 42.8413767,6.4830916 L41.2041683,8.11763359 C40.9859656,8.33553435 40.8770937,8.5859542 40.8770937,8.86958015 C40.8770937,9.15320611 40.9858509,9.40374046 41.2041683,9.62152672 L54.0767495,22.469313 L41.2041683,35.3177863 C40.9859656,35.5355725 40.8770937,35.7864504 40.8770937,36.0692748 C40.8770937,36.3530153 40.9858509,36.6037786 41.2041683,36.8215649 L42.8413767,38.4553053 C43.0603824,38.6735496 43.3109369,38.7820992 43.5951052,38.7820992 C43.8785851,38.7820992 44.1298279,38.6732061 44.3480306,38.4553053 L59.6115488,23.221374 C59.8298662,23.0035878 59.9389675,22.7523664 59.9389675,22.469084 C59.9389675,22.185687 59.8298662,21.9349237 59.6115488,21.7171374 Z" id="Shape"></path>
        </g>
    </g>
</svg>