<?xml version="1.0" encoding="UTF-8"?>
<svg width="150px" height="113px" viewBox="0 0 150 113" version="1.1" xmlns="http://www.w3.org/2000/svg" xmlns:xlink="http://www.w3.org/1999/xlink">
    <!-- Generator: Sketch 49.3 (51167) - http://www.bohemiancoding.com/sketch -->
    <title>code</title>
    <desc>Created with Sketch.</desc>
    <defs></defs>
    <g id="Page-1" stroke="none" stroke-width="1" fill="none" fill-rule="evenodd">
        <g id="code" fill="#707A23" fill-rule="nonzero">
            <path d="M93.4307839,1.58116635 L88.3525813,0.189005736 C87.6989484,-0.0289674952 87.0550669,0.0395793499 86.4289675,0.394072658 C85.8008604,0.748852772 85.376673,1.28145315 85.1586998,1.99101338 L54.6154876,107.704589 C54.3975143,108.414436 54.4657744,109.083843 54.8205545,109.710803 C55.1753346,110.33891 55.7067878,110.76195 56.4174952,110.979924 L61.4942639,112.372658 C62.1493308,112.592352 62.7909178,112.523518 63.418738,112.168451 C64.0468451,111.81195 64.4701721,111.281071 64.6878585,110.572658 L95.2319312,4.85736138 C95.4496176,4.14780115 95.3819312,3.47839388 95.0265774,2.85 C94.6715105,2.22189293 94.140631,1.79885277 93.4307839,1.58116635 Z" id="Shape"></path>
            <path d="M47.6578394,22.2174952 C47.6578394,21.507935 47.3845124,20.8795411 46.8387189,20.3340344 L42.7439771,16.2395793 C42.1981836,15.6937859 41.5700765,15.4201721 40.8605163,15.4201721 C40.150956,15.4201721 39.5225621,15.6940727 38.9770554,16.2395793 L0.819120459,54.3975143 C0.272466539,54.9433078 0,55.5714149 0,56.2809751 C0,56.9905354 0.27332696,57.6186424 0.819120459,58.1641491 L38.9767686,96.3220841 C39.5222753,96.868738 40.149522,97.140631 40.8602294,97.140631 C41.5709369,97.140631 42.1981836,96.8678776 42.7436902,96.3220841 L46.8384321,92.2299235 C47.3842256,91.6844168 47.6575526,91.0560229 47.6575526,90.3456023 C47.6575526,89.6369025 47.3842256,89.0087954 46.8384321,88.4632887 L14.6578394,56.2809751 L46.8387189,24.100956 C47.3853728,23.5554493 47.6578394,22.9270554 47.6578394,22.2174952 Z" id="Shape"></path>
            <path d="M149.028872,54.3966539 L110.870076,16.2387189 C110.32457,15.6932122 109.696176,15.4193117 108.987763,15.4193117 C108.277055,15.4193117 107.650956,15.6932122 107.103442,16.2387189 L103.010421,20.3328872 C102.464914,20.8786807 102.192734,21.5059273 102.192734,22.216348 C102.192734,22.9267686 102.464627,23.5543021 103.010421,24.0998088 L135.191874,56.2806883 L103.010421,88.4632887 C102.464914,89.0087954 102.192734,89.6371893 102.192734,90.3456023 C102.192734,91.0563098 102.464627,91.6844168 103.010421,92.2299235 L107.103442,96.3220841 C107.650956,96.868738 108.277342,97.140631 108.987763,97.140631 C109.696463,97.140631 110.32457,96.8678776 110.870076,96.3220841 L149.028872,58.1644359 C149.574665,57.6189293 149.847419,56.989675 149.847419,56.2801147 C149.847419,55.5702677 149.574665,54.9421606 149.028872,54.3966539 Z" id="Shape"></path>
        </g>
    </g>
</svg>