<?xml version="1.0" encoding="UTF-8"?>
<svg width="23px" height="30px" viewBox="0 0 23 30" version="1.1" xmlns="http://www.w3.org/2000/svg" xmlns:xlink="http://www.w3.org/1999/xlink">
    <!-- Generator: Sketch 49.3 (51167) - http://www.bohemiancoding.com/sketch -->
    <title>cv</title>
    <desc>Created with Sketch.</desc>
    <defs></defs>
    <g id="Page-1" stroke="none" stroke-width="1" fill="none" fill-rule="evenodd">
        <g id="iPhone-X" transform="translate(-286.000000, -691.000000)" fill="#FFFFFF" fill-rule="nonzero">
            <g id="Group-8" transform="translate(54.000000, 681.000000)">
                <g id="Group-3" transform="translate(218.000000, 0.000000)">
                    <g id="cv" transform="translate(14.000000, 10.000000)">
                        <path d="M0.87890625,30 L21.9726562,30 C22.4580469,30 22.8515625,29.6064844 22.8515625,29.1210938 L22.8515625,0.87890625 C22.8515625,0.393515625 22.4580469,0 21.9726562,0 L0.87890625,0 C0.393515625,0 0,0.393515625 0,0.87890625 L0,29.1210938 C0,29.6064844 0.393515625,30 0.87890625,30 Z M1.7578125,1.7578125 L21.09375,1.7578125 L21.09375,28.2421875 L1.7578125,28.2421875 L1.7578125,1.7578125 Z" id="Shape"></path>
                        <path d="M10.546875,6.15234375 C10.546875,4.69845703 9.36404297,3.515625 7.91015625,3.515625 C6.45626953,3.515625 5.2734375,4.69845703 5.2734375,6.15234375 C5.2734375,7.60623047 6.45626953,8.7890625 7.91015625,8.7890625 C9.36404297,8.7890625 10.546875,7.60623047 10.546875,6.15234375 Z M7.91015625,7.03125 C7.42552734,7.03125 7.03125,6.63697266 7.03125,6.15234375 C7.03125,5.66771484 7.42552734,5.2734375 7.91015625,5.2734375 C8.39478516,5.2734375 8.7890625,5.66771484 8.7890625,6.15234375 C8.7890625,6.63697266 8.39478516,7.03125 7.91015625,7.03125 Z" id="Shape"></path>
                        <path d="M4.39453125,14.0625 L11.4257812,14.0625 C11.9111719,14.0625 12.3046875,13.6689844 12.3046875,13.1835938 C12.3046875,10.7604492 10.3333008,8.7890625 7.91015625,8.7890625 C5.48701172,8.7890625 3.515625,10.7604492 3.515625,13.1835938 C3.515625,13.6689844 3.90914062,14.0625 4.39453125,14.0625 Z M7.91015625,10.546875 C9.05601563,10.546875 10.0335352,11.281582 10.3962891,12.3046875 L5.42402344,12.3046875 C5.78677734,11.281582 6.76429687,10.546875 7.91015625,10.546875 Z" id="Shape"></path>
                        <path d="M18.4570312,7.03125 L14.9414062,7.03125 C14.4560156,7.03125 14.0625,7.42476563 14.0625,7.91015625 C14.0625,8.39554687 14.4560156,8.7890625 14.9414062,8.7890625 L18.4570312,8.7890625 C18.9424219,8.7890625 19.3359375,8.39554687 19.3359375,7.91015625 C19.3359375,7.42476563 18.9424219,7.03125 18.4570312,7.03125 Z" id="Shape"></path>
                        <path d="M18.4570312,12.3046875 L14.9414062,12.3046875 C14.4560156,12.3046875 14.0625,12.6982031 14.0625,13.1835938 C14.0625,13.6689844 14.4560156,14.0625 14.9414062,14.0625 L18.4570312,14.0625 C18.9424219,14.0625 19.3359375,13.6689844 19.3359375,13.1835938 C19.3359375,12.6982031 18.9424219,12.3046875 18.4570312,12.3046875 Z" id="Shape"></path>
                        <path d="M18.4570312,17.6367188 L4.39453125,17.6367188 C3.90914062,17.6367188 3.515625,18.0302344 3.515625,18.515625 C3.515625,19.0010156 3.90914062,19.3945312 4.39453125,19.3945312 L18.4570312,19.3945312 C18.9424219,19.3945312 19.3359375,19.0010156 19.3359375,18.515625 C19.3359375,18.0302344 18.9424219,17.6367188 18.4570312,17.6367188 Z" id="Shape"></path>
                        <path d="M18.4570312,22.9101562 L4.39453125,22.9101562 C3.90914062,22.9101562 3.515625,23.3036719 3.515625,23.7890625 C3.515625,24.2744531 3.90914062,24.6679688 4.39453125,24.6679688 L18.4570312,24.6679688 C18.9424219,24.6679688 19.3359375,24.2744531 19.3359375,23.7890625 C19.3359375,23.3036719 18.9424219,22.9101562 18.4570312,22.9101562 Z" id="Shape"></path>
                    </g>
                </g>
            </g>
        </g>
    </g>
</svg>