<?xml version="1.0" encoding="UTF-8"?>
<svg width="1274px" height="1267px" viewBox="0 0 1274 1267" version="1.1" xmlns="http://www.w3.org/2000/svg" xmlns:xlink="http://www.w3.org/1999/xlink">
    <!-- Generator: Sketch 49.3 (51167) - http://www.bohemiancoding.com/sketch -->
    <title>Group</title>
    <desc>Created with Sketch.</desc>
    <defs></defs>
    <g id="Page-1" stroke="none" stroke-width="1" fill="none" fill-rule="evenodd">
        <g id="Group" transform="translate(3.000000, 2.000000)" stroke="#707A23" stroke-width="4">
            <path d="M607.391304,597 L660.608696,597 L668,630.840188 L660.608696,664.680376 L607.391304,664.680376 L600,630.840188 L607.391304,597 Z" id="1"></path>
            <path d="M568.26087,548 L699.73913,548 L718,631.60517 L699.73913,715.210341 L568.26087,715.210341 L550,631.60517 L568.26087,548 Z" id="2"></path>
            <path d="M529.130435,498 L738.869565,498 L768,631.370153 L738.869565,764.740306 L529.130435,764.740306 L500,631.370153 L529.130435,498 Z" id="3"></path>
            <path d="M490,448 L778,448 L818,631.135135 L778,814.27027 L490,814.27027 L450,631.135135 L490,448 Z" id="4"></path>
            <path d="M450.869565,398 L817.130435,398 L868,630.900118 L817.130435,863.800235 L450.869565,863.800235 L400,630.900118 L450.869565,398 Z" id="5"></path>
            <path d="M411.73913,349 L856.26087,349 L918,631.6651 L856.26087,914.3302 L411.73913,914.3302 L350,631.6651 L411.73913,349 Z" id="6"></path>
            <path d="M372.608696,299 L895.391304,299 L968,631.430082 L895.391304,963.860165 L372.608696,963.860165 L300,631.430082 L372.608696,299 Z" id="7"></path>
            <path d="M333.478261,249 L934.521739,249 L1018,631.195065 L934.521739,1013.39013 L333.478261,1013.39013 L250,631.195065 L333.478261,249 Z" id="8"></path>
            <path d="M294.347826,199 L973.652174,199 L1068,630.960047 L973.652174,1062.92009 L294.347826,1062.92009 L200,630.960047 L294.347826,199 Z" id="9"></path>
            <path d="M255.217391,150 L1012.78261,150 L1118,631.725029 L1012.78261,1113.45006 L255.217391,1113.45006 L150,631.725029 L255.217391,150 Z" id="10"></path>
            <path d="M216.086957,100 L1051.91304,100 L1168,631.490012 L1051.91304,1162.98002 L216.086957,1162.98002 L100,631.490012 L216.086957,100 Z" id="11"></path>
            <path d="M176.956522,50 L1091.04348,50 L1218,631.254994 L1091.04348,1212.50999 L176.956522,1212.50999 L50,631.254994 L176.956522,50 Z" id="12"></path>
            <path d="M137.826087,0 L1130.17391,0 L1268,631.019976 L1130.17391,1262.03995 L137.826087,1262.03995 L0,631.019976 L137.826087,0 Z" id="13"></path>
        </g>
    </g>
</svg>