<?xml version="1.0" encoding="UTF-8"?>
<svg width="60px" height="60px" viewBox="0 0 60 60" version="1.1" xmlns="http://www.w3.org/2000/svg" xmlns:xlink="http://www.w3.org/1999/xlink">
    <!-- Generator: Sketch 49.3 (51167) - http://www.bohemiancoding.com/sketch -->
    <title>cube</title>
    <desc>Created with Sketch.</desc>
    <defs></defs>
    <g id="Page-1" stroke="none" stroke-width="1" fill="none" fill-rule="evenodd">
        <g id="cube" fill="#FFFFFF" fill-rule="nonzero">
            <path d="M29.0629577,20.2294922 C29.0629577,20.7147217 29.4566345,21.1079407 29.941864,21.1079407 C30.4270935,21.1079407 30.8207702,20.7147217 30.8207702,20.2294922 L30.8207702,19.0576172 C30.8207702,18.5723877 30.4270935,18.1787109 29.941864,18.1787109 C29.4566345,18.1787109 29.0629577,18.5723877 29.0629577,19.0576172 L29.0629577,20.2294922 Z" id="Shape"></path>
            <path d="M29.0629577,24.3301392 C29.0629577,24.8153686 29.4566345,25.2090455 29.941864,25.2090455 C30.4270935,25.2090455 30.8207702,24.8153686 30.8207702,24.3301392 L30.8207702,23.1582642 C30.8207702,22.6730346 30.4270935,22.2798157 29.941864,22.2798157 C29.4566345,22.2798157 29.0629577,22.6730346 29.0629577,23.1582642 L29.0629577,24.3301392 Z" id="Shape"></path>
            <path d="M29.941864,17.0072937 C30.4270935,17.0072937 30.8207702,16.6140748 30.8207702,16.1283874 L30.8207702,14.9569702 C30.8207702,14.4712829 30.4270935,14.0780639 29.941864,14.0780639 C29.4566345,14.0780639 29.0629577,14.4712829 29.0629577,14.9569702 L29.0629577,16.1283874 C29.0629577,16.6140748 29.4566345,17.0072937 29.941864,17.0072937 Z" id="Shape"></path>
            <path d="M0.87890625,16.6914368 C1.36413574,16.6914368 1.75735477,16.29776 1.75735477,15.8125305 L1.75735477,1.75735477 L15.8125305,1.75735477 C16.29776,1.75735477 16.6914368,1.36413574 16.6914368,0.87890625 C16.6914368,0.393219023 16.29776,0 15.8125305,0 L0.87890625,0 C0.393676758,0 0,0.393219023 0,0.87890625 L0,15.8125305 C0,16.29776 0.393219023,16.6914368 0.87890625,16.6914368 Z" id="Shape"></path>
            <path d="M15.8125305,58.2426452 L1.75735477,58.2426452 L1.75735477,44.1874695 C1.75735477,43.70224 1.36413574,43.3085632 0.87890625,43.3085632 C0.393676758,43.3085632 0,43.70224 0,44.1874695 L0,59.1210938 C0,59.606781 0.393219023,60 0.87890625,60 L15.8125305,60 C16.29776,60 16.6914368,59.606781 16.6914368,59.1210938 C16.6914368,58.6358643 16.29776,58.2426452 15.8125305,58.2426452 Z" id="Shape"></path>
            <path d="M59.0048217,43.3085632 C58.5195923,43.3085632 58.1263733,43.70224 58.1263733,44.1874695 L58.1263733,58.2426452 L44.0711975,58.2426452 C43.585968,58.2426452 43.1922913,58.6358643 43.1922913,59.1210938 C43.1922913,59.606781 43.585968,60 44.0711975,60 L59.0048217,60 C59.4905091,60 59.883728,59.606781 59.883728,59.1210938 L59.883728,44.1874695 C59.883728,43.70224 59.4905091,43.3085632 59.0048217,43.3085632 Z" id="Shape"></path>
            <path d="M59.0048217,0 L44.0711975,0 C43.585968,0 43.1922913,0.393219023 43.1922913,0.87890625 C43.1922913,1.36413574 43.585968,1.75735477 44.0711975,1.75735477 L58.1263733,1.75735477 L58.1263733,15.8125305 C58.1263733,16.29776 58.5195923,16.6914368 59.0048217,16.6914368 C59.4905091,16.6914368 59.883728,16.29776 59.883728,15.8125305 L59.883728,0.87890625 C59.883728,0.393219023 59.4905091,0 59.0048217,0 Z" id="Shape"></path>
            <path d="M15.4069519,40.279541 C15.5415345,40.279541 15.6774902,40.2488708 15.8052063,40.1838684 L16.8489075,39.651947 C17.2814941,39.4317627 17.4536133,38.9025879 17.233429,38.4700013 C17.0127868,38.0378723 16.483612,37.8657532 16.0514831,38.0859375 L15.0073242,38.6178588 C14.5747376,38.8380432 14.4030762,39.367218 14.6232605,39.7998047 C14.7784424,40.1042175 15.0869752,40.279541 15.4069519,40.279541 Z" id="Shape"></path>
            <path d="M22.715149,36.5565491 C22.8492737,36.5565491 22.9856872,36.5254212 23.1134033,36.4604187 L24.1571045,35.9284973 C24.5896911,35.708313 24.7613525,35.1791381 24.5411682,34.7465515 C24.3209838,34.3144226 23.7918091,34.1423034 23.3592224,34.3629456 L22.3150635,34.8948669 C21.8829346,35.1150513 21.7108154,35.644226 21.9314576,36.0768128 C22.0866394,36.3812256 22.3951721,36.5565491 22.715149,36.5565491 Z" id="Shape"></path>
            <path d="M19.0612793,38.418274 C19.195404,38.418274 19.3318177,38.3871459 19.4590759,38.3221436 L20.5032349,37.7902221 C20.9353638,37.5700378 21.107483,37.040863 20.8872986,36.6082764 C20.6671143,36.1761475 20.1379395,36.0040283 19.7053528,36.2242126 L18.6616516,36.7561341 C18.229065,36.9763184 18.0569459,37.5059509 18.2775879,37.9380798 C18.432312,38.2424927 18.7408447,38.418274 19.0612793,38.418274 Z" id="Shape"></path>
            <path d="M26.3690186,34.6948242 C26.5031433,34.6948242 26.6395569,34.664154 26.7672729,34.5991516 L27.8109741,34.0667725 C28.2435608,33.8465882 28.41568,33.3174134 28.1950378,32.8848267 C27.9748535,32.4526978 27.4456787,32.2810364 27.0130921,32.5012207 L25.9693909,33.033142 C25.5368041,33.2533264 25.364685,33.7825012 25.5853271,34.2150879 C25.7405091,34.5195007 26.0490417,34.6948242 26.3690186,34.6948242 Z" id="Shape"></path>
            <path d="M43.8322448,38.0859375 C43.3996582,37.8657532 42.8709411,38.0374146 42.6502991,38.4700013 C42.4301147,38.9025879 42.6022338,39.4317627 43.0343627,39.651947 L44.0785218,40.1838684 C44.2062377,40.2488708 44.3426514,40.279541 44.4767761,40.279541 C44.7962952,40.279541 45.1052857,40.1042175 45.2600098,39.799347 C45.4806518,39.367218 45.3085327,38.8380432 44.875946,38.6178588 L43.8322448,38.0859375 Z" id="Shape"></path>
            <path d="M40.1783753,36.2242126 C39.7457885,36.0040283 39.2166138,36.1756897 38.9964294,36.6082764 C38.7757874,37.040863 38.9479065,37.5700378 39.3804932,37.7902221 L40.4241943,38.3221436 C40.5523682,38.3871459 40.6883239,38.4178161 40.8224487,38.4178161 C41.1424255,38.4178161 41.4509583,38.2424927 41.6061401,37.9380798 C41.8267822,37.5054932 41.6546631,36.9763184 41.2220764,36.7561341 L40.1783753,36.2242126 Z" id="Shape"></path>
            <path d="M32.870636,32.5012207 C32.4380494,32.2810364 31.9088745,32.4526978 31.6886902,32.8848267 C31.4680481,33.3174134 31.6401673,33.8465882 32.0722962,34.0667725 L33.1164551,34.5991516 C33.2441712,34.664154 33.3805847,34.6948242 33.5147095,34.6948242 C33.8346862,34.6948242 34.143219,34.5195007 34.2984009,34.2150879 C34.5185852,33.7825013 34.3469238,33.2533264 33.9143372,33.0326843 L32.870636,32.5012207 Z" id="Shape"></path>
            <path d="M36.5245056,34.3624877 C36.0919189,34.1423034 35.5627441,34.3144226 35.3425598,34.7465515 C35.1219177,35.1791381 35.2940368,35.708313 35.7266236,35.9284973 L36.7703248,36.4604187 C36.8980407,36.5254212 37.0344544,36.5565491 37.1685791,36.5565491 C37.4885559,36.5565491 37.7970886,36.3812256 37.9522705,36.0763549 C38.1729127,35.6437683 38.0007935,35.1150513 37.5682068,34.8944092 L36.5245056,34.3624877 Z" id="Shape"></path>
            <path d="M47.7406311,44.7161865 C48.3966064,45.5374146 49.4055176,46.0647584 50.5357361,46.0647584 C52.5082397,46.0647584 54.1131592,44.4598389 54.1131592,42.4873352 C54.1131592,40.8178711 52.9637146,39.4120788 51.4146423,39.0193177 L51.4146423,34.0869141 C51.4146423,33.6016846 51.0209655,33.2080078 50.5357361,33.2080078 C50.0500488,33.2080078 49.6568298,33.6016846 49.6568298,34.0869141 L49.6568298,39.0193177 C49.6540833,39.0197754 49.6513366,39.0206909 49.6490479,39.0216064 C49.6362305,39.0248108 49.6234131,39.0284729 49.6105957,39.032135 C49.5703125,39.0426635 49.530487,39.0541077 49.4906616,39.0660095 C49.4718933,39.0719604 49.4535827,39.0779114 49.4352722,39.0838623 C49.4013977,39.0948486 49.3675232,39.1062927 49.3341064,39.1181946 C49.3148803,39.1250611 49.2956543,39.1323853 49.2764283,39.1397095 C49.2434693,39.1516113 49.2114258,39.1648864 49.1789245,39.1781616 C49.160614,39.1854858 49.1423034,39.1932679 49.1239929,39.2010498 C49.0892029,39.2156982 49.0548705,39.23172 49.0209961,39.2472839 C49.0058899,39.2546081 48.9907838,39.2610169 48.9761353,39.2683411 C48.8790893,39.3154908 48.7843323,39.367218 48.6923217,39.4226074 C48.6776733,39.431305 48.6639404,39.4404602 48.6497497,39.4491577 C48.6181641,39.4688415 48.5870361,39.4885254 48.5559082,39.5091247 C48.5394287,39.5201111 48.523407,39.5315552 48.5073853,39.5425416 C48.4790039,39.5622253 48.4506225,39.5823669 48.4226989,39.6029663 C48.4066772,39.6144104 48.3911133,39.6263122 48.3750915,39.6382141 C48.3467102,39.6597291 48.3187866,39.6817017 48.2913209,39.7041321 C48.2771302,39.7155762 48.2629395,39.7270202 48.2487488,39.7389221 C48.2167054,39.7654724 48.1851197,39.7929382 48.1539916,39.8208619 C48.1452942,39.8286438 48.1361389,39.8364258 48.1274414,39.8442077 C48.0880737,39.8799134 48.0491638,39.9169922 48.0111694,39.9549866 C48.0029297,39.9636841 47.9942321,39.9723816 47.9859925,39.9810791 C47.9571533,40.0108337 47.9283142,40.0405884 47.9003906,40.0708008 C47.888031,40.0845338 47.8756713,40.0982666 47.8637695,40.1119995 C47.8578186,40.1184082 47.8523255,40.124817 47.8463745,40.1312256 L47.4861145,39.9476624 C47.0535279,39.7270202 46.5248108,39.8991394 46.3041687,40.331726 C46.0839844,40.7638549 46.2556458,41.2930298 46.6882324,41.5136719 L47.0466614,41.6963196 C47.0429993,41.7137146 47.0388795,41.7315674 47.0352173,41.7494202 C47.0310974,41.7691041 47.0274353,41.7887878 47.0237732,41.8084717 C47.0169068,41.8432617 47.010498,41.8785095 47.0045471,41.9137573 C47.0013428,41.9352722 46.9981384,41.9567871 46.9949341,41.9778443 C46.9898987,42.0130921 46.9857788,42.0478821 46.9816589,42.0831299 C46.9793701,42.1046448 46.9766236,42.1257019 46.9747924,42.1467591 C46.9711303,42.1847534 46.9683838,42.2227478 46.966095,42.2611999 C46.9651794,42.2795105 46.9633484,42.2982788 46.9628906,42.3165893 C46.960144,42.3733521 46.958313,42.4301147 46.958313,42.4873352 L46.958313,42.487793 C46.958313,42.5454713 46.960144,42.6031494 46.9628906,42.6608276 C46.9633484,42.6777649 46.9651794,42.6947021 46.966095,42.7120971 C46.9688415,42.7523803 46.9715882,42.7931214 46.9752503,42.8334046 C46.9770813,42.8521729 46.9793701,42.8709411 46.9816589,42.8897095 C46.9857788,42.9286194 46.9908142,42.9675293 46.9963073,43.0059814 C46.999054,43.0238343 47.0018005,43.041687 47.0045471,43.0595398 C47.0077514,43.0778503 47.0100403,43.0966186 47.0132447,43.1149291 L32.6335144,50.4405212 C32.2471618,49.997406 31.758728,49.6614075 31.2130737,49.4549561 C31.1924743,49.4471741 31.1714173,49.4389343 31.1503601,49.4311523 C31.1087037,49.4165039 31.0675049,49.4023132 31.0253906,49.3890381 C30.9754944,49.3730163 30.9251404,49.3583679 30.8743287,49.344635 C30.8564759,49.3400573 30.838623,49.3336487 30.8207702,49.329071 L30.8207702,32.6097107 C30.8235169,32.6087952 30.8262634,32.6078796 30.82901,32.6074219 C30.8413697,32.6042175 30.8537292,32.6000977 30.8660889,32.5968933 C30.9068298,32.585907 30.947113,32.5749206 30.9873962,32.5625611 C31.0057068,32.5566101 31.0235596,32.5506592 31.0414124,32.545166 C31.0757447,32.533722 31.1100769,32.5222779 31.1439514,32.510376 C31.1631775,32.5035095 31.1819459,32.4961853 31.2011719,32.4893189 C31.2341309,32.4769593 31.2666321,32.4636841 31.2991334,32.4504089 C31.3174439,32.4430847 31.3352966,32.4357605 31.3536071,32.4279785 C31.3883972,32.4128723 31.4231872,32.3968506 31.4575195,32.3808288 C31.472168,32.3739623 31.4868164,32.3675537 31.5014648,32.3602295 C31.5989685,32.3130798 31.6937256,32.2613525 31.7857361,32.2055053 C31.799469,32.1972656 31.8132019,32.1885681 31.8269348,32.1798705 C31.8589782,32.1601868 31.8905639,32.1400452 31.9221497,32.118988 C31.9381713,32.1084595 31.9537354,32.0974732 31.9697571,32.0864869 C31.9985963,32.0663452 32.0269775,32.0462037 32.0553588,32.0256042 C32.0709229,32.0137024 32.0864869,32.0022584 32.1020508,31.9903564 C32.1308899,31.9688415 32.1592712,31.9464111 32.1871948,31.9239807 C32.2009277,31.9125366 32.2151184,31.9015502 32.2288513,31.8901062 C32.2613525,31.8626404 32.2938538,31.8347168 32.3258972,31.8058777 C32.3336791,31.7990112 32.3419189,31.7921448 32.3497009,31.7848206 C32.3895264,31.7486572 32.4284363,31.7111205 32.4668884,31.6731263 C32.4746705,31.6653443 32.4819947,31.6571045 32.4902344,31.6493225 C32.5195313,31.6191101 32.5488281,31.58844 32.5776673,31.557312 C32.5895691,31.5444947 32.601471,31.5307617 32.6133728,31.5174866 C32.6371765,31.4904785 32.6609802,31.4634704 32.6838684,31.4360046 C32.696228,31.4208984 32.7085876,31.4057923 32.7209473,31.3906861 C32.7429199,31.363678 32.7648926,31.3357545 32.7859498,31.3078308 C32.7973938,31.2927246 32.8092956,31.2776184 32.820282,31.2625123 C32.8431702,31.2322998 32.864685,31.2011719 32.8861999,31.1695862 C32.8953552,31.1567688 32.9045105,31.1439514 32.9136657,31.1306763 C32.9736328,31.0414124 33.0294799,30.9494018 33.0812073,30.8546448 C33.0889893,30.8404541 33.0963135,30.8262634 33.1040954,30.8120728 C33.1214905,30.778656 33.1388855,30.7447815 33.1558228,30.710907 C33.1645202,30.693512 33.17276,30.6756592 33.1809997,30.6578064 C33.1956482,30.6262207 33.2102966,30.5941772 33.2244873,30.5621338 C33.2322693,30.5438232 33.2405091,30.525055 33.248291,30.5062866 C33.262024,30.4733276 33.2748413,30.4399109 33.2876588,30.4064941 C33.2940674,30.3890991 33.3013916,30.3712464 33.3078002,30.3533936 C33.3219909,30.3140259 33.3352662,30.2737427 33.3480834,30.2339173 C33.3522034,30.2220154 33.3563232,30.2101136 33.3599854,30.1986694 C33.3760071,30.1460266 33.3911133,30.0933838 33.405304,30.0398255 C33.4085084,30.0274658 33.4107971,30.0151062 33.4140014,30.0027466 C33.4240723,29.9615479 33.4341431,29.9203491 33.4423828,29.8791504 C33.4465027,29.8599244 33.4501648,29.8406982 33.4538269,29.8210144 C33.4606934,29.7857666 33.4675598,29.7505188 33.473053,29.7143555 C33.4762573,29.6932983 33.4794616,29.6722412 33.482666,29.6511841 C33.4877014,29.6159363 33.492279,29.5806885 33.4959411,29.5454407 C33.4986878,29.5243835 33.5009766,29.5033264 33.5028076,29.4822693 C33.5064697,29.4438171 33.5092163,29.4058228 33.5119629,29.3673705 C33.5128784,29.34906 33.5142517,29.3307495 33.5151673,29.3124389 C33.5179138,29.2556763 33.5197448,29.1984558 33.5197448,29.1412354 C33.5197448,29.0757751 33.5174561,29.0107727 33.5142517,28.946228 C33.5133362,28.9361572 33.5124206,28.9260865 33.5119629,28.9160156 C33.5083008,28.8601685 33.5037232,28.8038636 33.4977722,28.7484741 C33.4968567,28.7411498 33.4954834,28.7338256 33.4945678,28.7265014 C33.4881592,28.6674499 33.4799194,28.6088562 33.4698486,28.5507202 C33.468933,28.5456848 33.4680176,28.5401917 33.4671021,28.5351563 C33.4570313,28.4747314 33.4451295,28.4152221 33.4318542,28.3561706 C33.4313965,28.3538818 33.4309388,28.3520508 33.430481,28.3502197 L47.8440857,21.0067748 C48.2308959,21.4498901 48.7193298,21.7858887 49.2645264,21.9923401 C49.2855834,22.0001221 49.3066406,22.0083619 49.3276978,22.0161438 C49.3688965,22.0307923 49.410553,22.044983 49.4522095,22.0582581 C49.5021057,22.0742798 49.5529174,22.0889283 49.6037292,22.1026611 C49.621582,22.1072388 49.6389771,22.1136475 49.6572877,22.1182252 L49.6572877,30.5717468 C49.6572877,31.0569763 50.0505066,31.4501953 50.5357361,31.4501953 C51.0214233,31.4501953 51.4146423,31.0569763 51.4146423,30.5717468 L51.4146423,22.1168518 C52.9637146,21.7240905 54.1131592,20.3187561 54.1131592,18.649292 C54.1131592,16.6763306 52.5086975,15.0718689 50.5357361,15.0718689 C49.4650268,15.0718689 48.5032654,15.5451966 47.84729,16.2931823 L33.4300232,8.94836426 C33.4877014,8.69338992 33.5192871,8.42926031 33.5192871,8.15734863 C33.5192871,6.184845 31.9143677,4.57992551 29.941864,4.57992551 C27.9693604,4.57992551 26.3644409,6.184845 26.3644409,8.15734863 C26.3644409,8.42926031 26.3960266,8.69338992 26.4537048,8.94836426 L23.5762024,10.4141236 C23.1436158,10.6343079 22.9719544,11.1634827 23.1921387,11.5960693 C23.412323,12.0281982 23.9419556,12.2003174 24.3740845,11.9801331 L27.2502136,10.5148315 C27.7226257,11.0568237 28.3465576,11.4404297 29.0419007,11.619873 C29.048767,11.6217041 29.0560913,11.6230774 29.0629577,11.6249085 L29.0629577,12.0272827 C29.0629577,12.51297 29.4566345,12.9061889 29.941864,12.9061889 C30.4270935,12.9061889 30.8207702,12.51297 30.8207702,12.0272827 L30.8207702,11.6249085 C30.8276367,11.6230774 30.8349609,11.6217041 30.8418274,11.619873 C31.5371705,11.4404297 32.1611023,11.0568237 32.6335144,10.5148315 L47.0471191,17.8582764 C47.0466614,17.8605652 47.0466614,17.8628541 47.0457458,17.8651429 C47.0329284,17.9237366 47.0210266,17.9827881 47.010498,18.0427552 C47.0095826,18.0482483 47.008667,18.0537415 47.0077514,18.0592346 C46.9981384,18.1169128 46.9898987,18.1750488 46.9830322,18.2336426 C46.9821166,18.2414245 46.9812012,18.2487488 46.9802857,18.2565307 C46.9743347,18.3123779 46.9692994,18.3682252 46.966095,18.42453 C46.9651794,18.4346009 46.9642639,18.4442139 46.9638061,18.4538269 C46.960144,18.5183716 46.958313,18.583374 46.958313,18.6488343 C46.958313,18.7147522 46.960144,18.7797546 46.9638061,18.8442994 C46.9642639,18.8539124 46.9651794,18.8635254 46.966095,18.8731384 C46.9692994,18.9294434 46.973877,18.9857483 46.9802857,19.0415954 C46.9812012,19.0493775 46.9821166,19.0567017 46.9830322,19.0640259 C46.9898987,19.1230774 46.9981384,19.1812134 47.0077514,19.2393493 C47.008667,19.2448425 47.0095826,19.2498779 47.010498,19.2549134 C47.0210266,19.3153382 47.0329284,19.3748474 47.0462037,19.433899 C47.0466614,19.4361878 47.0466614,19.4380188 47.0471191,19.4403076 L32.6335144,26.7832946 C32.1606445,26.2417603 31.5371705,25.8581543 30.8418274,25.6787109 C30.8335876,25.6764221 30.8248901,25.6745911 30.8166504,25.6723022 C30.769043,25.6604004 30.7209778,25.6489563 30.6724548,25.6393432 C30.6559753,25.6356811 30.6385804,25.6329346 30.6221009,25.6297302 C30.5804443,25.6214905 30.5392455,25.6137084 30.4975891,25.6072998 C30.4719544,25.60318 30.4458619,25.6004333 30.4202271,25.5967712 C30.3858948,25.5921936 30.3515625,25.5871582 30.3167725,25.5834961 C30.2806091,25.579834 30.243988,25.5775452 30.2073669,25.5747986 C30.1817321,25.5729675 30.1565552,25.570221 30.1309205,25.5688477 C30.0682068,25.5656433 30.0050354,25.5638122 29.941864,25.5638122 C29.8782349,25.5638122 29.8150635,25.5656433 29.7523499,25.5688477 C29.7267151,25.570221 29.7015381,25.5729675 29.6759033,25.5747986 C29.6392822,25.5775452 29.6031189,25.579834 29.5664978,25.5834961 C29.5321655,25.5871582 29.4973755,25.5921936 29.4630432,25.5967712 C29.4374085,25.6004333 29.4113159,25.60318 29.3861389,25.6072998 C29.3440247,25.6137084 29.3028259,25.6214905 29.2611694,25.6297302 C29.24469,25.6329346 29.2272949,25.6356811 29.2108154,25.6393432 C29.1622924,25.6489563 29.1142273,25.6604004 29.0666198,25.6723022 C29.0583802,25.6745911 29.0496826,25.6764221 29.0414428,25.6787109 C28.3460999,25.8581543 27.7226257,26.2417603 27.2497559,26.7832946 L12.8361511,19.4403076 C12.8366088,19.4380188 12.8370667,19.4361878 12.8375244,19.433899 C12.8503418,19.3748474 12.8622436,19.3153382 12.8727722,19.2553711 C12.8736878,19.2498779 12.8746032,19.2448425 12.8755188,19.2393493 C12.8851318,19.1812134 12.8933716,19.1230774 12.900238,19.0640259 C12.9011536,19.0567017 12.9025268,19.0493775 12.9029846,19.0415954 C12.9093933,18.9862061 12.913971,18.9303588 12.9171752,18.8735963 C12.9180908,18.8639831 12.9190064,18.8539124 12.9194641,18.8442994 C12.9231263,18.7797546 12.9249573,18.7147522 12.9249573,18.649292 C12.9249573,18.5838318 12.9231263,18.5188294 12.9194641,18.4542846 C12.9190064,18.4442139 12.9180908,18.4346009 12.9171752,18.42453 C12.913971,18.3682252 12.9093933,18.3123779 12.9029846,18.2565307 C12.9025268,18.2492065 12.9011536,18.2418823 12.900238,18.2341003 C12.8933716,18.1755066 12.8855896,18.1169128 12.8755188,18.0592346 C12.8746032,18.0537415 12.8736878,18.0482483 12.8727722,18.0427552 C12.8622436,17.9827881 12.8503418,17.9232788 12.8375244,17.8642273 C12.8370667,17.8623962 12.8366088,17.8601074 12.8361511,17.8582764 L21.2457275,13.5740661 C21.6778564,13.3534241 21.8499756,12.8242493 21.6297913,12.3921204 C21.4096069,11.9595338 20.8799743,11.7874146 20.4478454,12.0080566 L12.036438,16.2931823 C11.3800049,15.5456543 10.4182434,15.0718689 9.34753418,15.0718689 C7.37503055,15.0718689 5.77011105,16.6767884 5.77011105,18.649292 C5.77011105,20.3187561 6.91955566,21.7245483 8.46862793,22.1173096 L8.46862793,26.158905 C8.46862793,26.6441345 8.86184695,27.0373535 9.34753418,27.0373535 C9.83276367,27.0373535 10.2264404,26.6441345 10.2264404,26.158905 L10.2264404,22.1182252 C10.2456666,22.1136475 10.2644348,22.106781 10.2841186,22.1012878 C10.3152466,22.0930481 10.3463745,22.083435 10.3775025,22.0742798 C11.0202026,21.882019 11.5965271,21.5148926 12.0391846,21.0072327 L26.4527893,28.3502197 C26.4257813,28.4706116 26.4051819,28.5923767 26.3905335,28.7150573 C26.3891602,28.7232971 26.3877868,28.7315368 26.3868714,28.7402344 C26.3818359,28.7860107 26.3786316,28.8317871 26.3749695,28.8775635 C26.3735963,28.8986205 26.3708496,28.91922 26.3699341,28.9402771 C26.3658142,29.0075684 26.3639831,29.0744018 26.3639831,29.1412354 C26.3639831,30.8111572 27.5134277,32.2169495 29.0625,32.6097107 L29.0625,49.329071 C29.0382386,49.335022 29.0144348,49.3437195 28.9897155,49.3501282 C28.9530945,49.3606568 28.9164734,49.3711853 28.88031,49.3826295 C28.8066101,49.4050598 28.7342835,49.4302369 28.6624146,49.4577026 C28.6528015,49.4618225 28.6431885,49.4650268 28.6335755,49.4686889 C28.1030273,49.6765137 27.6278686,50.0074768 27.2497559,50.4405212 L12.8704834,43.1149291 C12.8736878,43.0966186 12.8759766,43.0778503 12.8787232,43.0595398 C12.8819275,43.041687 12.8846741,43.0238343 12.8874206,43.0059814 C12.8929138,42.9675293 12.8974915,42.9286194 12.9020691,42.8897095 C12.9039001,42.8709411 12.9061889,42.8521729 12.9080201,42.8334046 C12.9121399,42.7931214 12.9148864,42.7523803 12.9176331,42.7120971 C12.9185486,42.6947021 12.9199219,42.6777649 12.9208373,42.6608276 C12.923584,42.6031494 12.925415,42.5454713 12.925415,42.487793 L12.925415,42.4873352 C12.925415,42.4246216 12.9231263,42.3623658 12.9199219,42.3005677 C12.9190064,42.2868347 12.9180908,42.2731018 12.9171752,42.2598267 C12.913971,42.2053528 12.9089355,42.1517944 12.9034424,42.0982361 C12.9025268,42.0913697 12.9020691,42.0849609 12.9011536,42.0780945 C12.8865052,41.9485474 12.8649902,41.8212891 12.8366088,41.6967773 L13.1950378,41.5136719 C13.6276245,41.2934876 13.7992859,40.7643128 13.5791016,40.331726 C13.3589173,39.8995971 12.8297425,39.727478 12.3971557,39.9476624 L12.0368958,40.1316833 C11.7498779,39.8043823 11.4042663,39.5301819 11.0169983,39.3246459 C11.0160827,39.3241882 11.0151673,39.3237305 11.0142517,39.3232727 C10.9629821,39.2962646 10.9107971,39.2706299 10.8581543,39.2459107 C10.8512878,39.2427063 10.8448792,39.239502 10.8380127,39.2362976 C10.7853698,39.2120361 10.7322693,39.1891479 10.6782532,39.1671752 C10.6764221,39.1662598 10.6745911,39.165802 10.67276,39.1648864 C10.614624,39.1415405 10.5560303,39.1200257 10.4965209,39.0998841 C10.4951477,39.0994263 10.4937744,39.0989685 10.4924011,39.0985107 C10.4388428,39.0802002 10.3848267,39.0637207 10.3303528,39.0481568 C10.3166198,39.0444947 10.3033447,39.0408326 10.2896119,39.0367126 C10.2685547,39.0312195 10.2474975,39.0248108 10.2264404,39.0193177 L10.2264404,29.6740723 C10.2264404,29.1888428 9.83322141,28.7956238 9.34753418,28.7956238 C8.86230469,28.7956238 8.46908566,29.1888428 8.46908566,29.6740723 L8.46908566,39.0197754 C6.9200134,39.4125366 5.77056891,40.8183288 5.77056891,42.487793 C5.77056891,44.4602966 7.37503055,46.0652161 9.34753418,46.0652161 C10.4782104,46.0652161 11.4866638,45.5374146 12.143097,44.7166443 L26.4527893,52.0069886 C26.3951111,52.2615052 26.3639831,52.5260925 26.3639831,52.7980042 C26.3639831,54.7705078 27.9689026,56.3754272 29.9414063,56.3754272 C31.9143677,56.3754272 33.5188294,54.7705078 33.5188294,52.7980042 C33.5188294,52.5260925 33.4872436,52.2619629 33.4295654,52.0069886 L47.7406311,44.7161865 Z M49.519043,40.9785462 C49.8092651,40.7821655 50.1594544,40.6672669 50.5357361,40.6672669 C51.539154,40.6672669 52.3558044,41.4839173 52.3558044,42.4873352 C52.3558044,43.4907532 51.539154,44.3074036 50.5357361,44.3074036 C49.786377,44.3074036 49.1423034,43.8519287 48.8635254,43.2037354 C48.8493347,43.1712341 48.8378906,43.1378174 48.8259888,43.1044007 C48.8172913,43.080597 48.8072204,43.057251 48.7994385,43.0329895 C48.7893677,42.9995728 48.7815857,42.9656982 48.773346,42.9322815 C48.7664795,42.9066468 48.7586975,42.8814697 48.7532044,42.8553772 C48.7467956,42.8233337 48.7431335,42.7908326 48.7385559,42.7583313 C48.7339782,42.7299499 48.7284851,42.7020264 48.7252807,42.6731872 C48.7197877,42.6200866 48.7179565,42.5660706 48.717041,42.5120544 C48.717041,42.5038147 48.7156677,42.4955749 48.7156677,42.4873352 C48.7156677,41.8601989 49.0347291,41.3058471 49.519043,40.9785462 Z M48.7275696,18.4492493 C48.7303161,18.4249877 48.7348938,18.4016419 48.7385559,18.3778382 C48.7445068,18.3361816 48.7513733,18.2945251 48.7605286,18.2533264 C48.7664795,18.2272338 48.7738037,18.2011413 48.7806702,18.1750488 C48.7911987,18.1361389 48.8026429,18.0972291 48.815918,18.0592346 C48.8241577,18.0354309 48.8328552,18.0116272 48.8424682,17.9878235 C48.85849,17.946167 48.8768005,17.9049682 48.8964844,17.8642273 C49.1903686,17.2535706 49.8138428,16.8292236 50.5357361,16.8292236 C51.539154,16.8292236 52.3558044,17.645874 52.3558044,18.649292 C52.3558044,19.65271 51.539154,20.4693604 50.5357361,20.4693604 C50.4798889,20.4693604 50.4244995,20.4656982 50.3695678,20.4606628 C50.355835,20.4597473 50.3425598,20.4579163 50.3288269,20.456543 C50.2770996,20.4505921 50.2258301,20.4432679 50.175476,20.433197 C50.1731872,20.4327393 50.1704407,20.4322815 50.1681518,20.4318237 C50.111847,20.4203796 50.0564576,20.4057312 50.0024414,20.3887939 C49.9964905,20.3874206 49.9914551,20.3855896 49.9859619,20.3837585 C49.5936585,20.2592468 49.2585755,20.0047302 49.031067,19.6714782 C49.026947,19.6655273 49.0232849,19.6591186 49.019165,19.6531677 C48.9944459,19.6151733 48.9710999,19.5762634 48.9486694,19.5368958 C48.941803,19.5249939 48.9349365,19.5126342 48.9285279,19.5007324 C48.9170837,19.478302 48.907013,19.4554138 48.8960266,19.4329834 C48.8768005,19.3927002 48.8589478,19.352417 48.8424682,19.3112182 C48.833313,19.2874146 48.8246155,19.263153 48.815918,19.2388916 C48.8031006,19.2008972 48.7916565,19.162445 48.7811279,19.1239929 C48.7738037,19.0979004 48.7664795,19.0713502 48.7605286,19.0447998 C48.7513733,19.0040589 48.7449646,18.9624023 48.7385559,18.9212037 C48.7348938,18.8969421 48.7303161,18.8735963 48.7275696,18.8493347 C48.7202454,18.7834167 48.7161255,18.7165833 48.7161255,18.649292 C48.7156677,18.5820007 48.7202454,18.5151673 48.7275696,18.4492493 Z M31.5486145,9.0092468 C31.5426635,9.02114871 31.5362549,9.03259277 31.5298463,9.04403684 C31.506958,9.08432004 31.4831543,9.12414551 31.4575195,9.16259766 C31.4538574,9.16809082 31.450653,9.17358398 31.4469909,9.17907715 C31.2199402,9.51278684 30.8843994,9.7668457 30.492096,9.89181516 C30.4866028,9.89364621 30.4811096,9.89547727 30.4756165,9.89685059 C30.4211426,9.91378781 30.3662109,9.92797852 30.309906,9.93988031 C30.3071595,9.94033816 30.3048705,9.9407959 30.302124,9.94125363 C30.2522278,9.95132449 30.2005005,9.95864871 30.149231,9.96459961 C30.135498,9.96597293 30.1217651,9.96734625 30.10849,9.96871945 C30.0535583,9.97375488 29.9981689,9.97695926 29.941864,9.97695926 C29.8860169,9.97695926 29.8306275,9.97375488 29.7756959,9.96871945 C29.7619629,9.96734625 29.7482299,9.96597293 29.7349548,9.96459961 C29.6832275,9.95864871 29.631958,9.95132449 29.5816041,9.94125363 C29.5793152,9.9407959 29.5765686,9.94033816 29.5742798,9.93988031 C29.5179749,9.92797852 29.4625854,9.91378781 29.4085693,9.89685059 C29.4026184,9.89547727 29.397583,9.89318848 29.3916321,9.89181516 C28.9993287,9.7668457 28.6642455,9.5123291 28.436737,9.17861941 C28.4330749,9.17358398 28.4298705,9.16763309 28.4262084,9.16213992 C28.4005737,9.12368777 28.3767701,9.08432004 28.3543396,9.0435791 C28.3479309,9.03213504 28.3410645,9.02114871 28.3351136,9.0092468 C28.1996155,8.7547302 28.1222534,8.46496582 28.1222534,8.15734863 C28.1222534,7.15393066 28.938446,6.33728027 29.941864,6.33728027 C30.945282,6.33728027 31.7619323,7.15393066 31.7619323,8.15734863 C31.7619323,8.46496582 31.6841126,8.7547302 31.5486145,9.0092468 Z M11.1561585,18.8493347 C11.1534118,18.8735963 11.1488343,18.8973998 11.1451721,18.9212037 C11.1392213,18.9628601 11.1323548,19.0040589 11.1231995,19.0452575 C11.1172486,19.0718079 11.1099244,19.0979004 11.1030579,19.1239929 C11.0925293,19.162445 11.0810852,19.2008972 11.06781,19.2388916 C11.0595703,19.263153 11.050415,19.2874146 11.0412598,19.3112182 C11.025238,19.352417 11.0069275,19.3931579 10.9877014,19.4329834 C10.7501221,19.9282838 10.2960205,20.3004456 9.74853516,20.4244995 C9.74578852,20.4249573 9.74349973,20.4258728 9.7407532,20.4263306 C9.70550531,20.4341126 9.66934207,20.4405212 9.63317871,20.4460144 C9.62539676,20.4473877 9.61807254,20.448761 9.61074832,20.4501342 C9.57733148,20.4551696 9.54345703,20.4579163 9.50958258,20.4611205 C9.49951172,20.4620361 9.48944086,20.4634095 9.47937012,20.4643249 C9.43588254,20.4675293 9.39193723,20.4693604 9.34753418,20.4693604 C8.34411621,20.4693604 7.52792355,19.65271 7.52792355,18.649292 C7.52792355,17.645874 8.34411621,16.8292236 9.34753418,16.8292236 C10.070343,16.8292236 10.6942748,17.2540283 10.9877014,17.8656006 C11.0069275,17.9054261 11.0247803,17.946167 11.0412598,17.9873658 C11.050415,18.0111694 11.0591126,18.0354309 11.06781,18.0596924 C11.0810852,18.0976868 11.0920716,18.1361389 11.1026002,18.1745911 C11.1099244,18.2006836 11.1172486,18.2267761 11.1231995,18.2533264 C11.1323548,18.2945251 11.1387634,18.3361816 11.1451721,18.3773803 C11.1488343,18.4016419 11.1534118,18.4249877 11.1561585,18.4492493 C11.1634827,18.5151673 11.1676025,18.5820007 11.1676025,18.649292 C11.1680603,18.7165833 11.1634827,18.7834167 11.1561585,18.8493347 Z M11.166687,42.5120544 C11.1662292,42.5660706 11.1639404,42.6200866 11.1584473,42.6731872 C11.1557006,42.7020264 11.1497497,42.7299499 11.1456299,42.7583313 C11.1405945,42.7903747 11.1369323,42.8233337 11.1305237,42.8553772 C11.1250305,42.8814697 11.1172486,42.9066468 11.1108398,42.9322815 C11.1021423,42.9656982 11.0948181,42.9995728 11.0842896,43.0329895 C11.0765075,43.057251 11.0668945,43.080597 11.058197,43.1044007 C11.0458373,43.1378174 11.0343933,43.1712341 11.0206604,43.2037354 C10.7418823,43.8519287 10.097351,44.3074036 9.34799191,44.3074036 C8.34457395,44.3074036 7.52838141,43.4907532 7.52838141,42.4873352 C7.52838141,41.4839173 8.34457395,40.6672669 9.34799191,40.6672669 C9.72427371,40.6672669 10.0744629,40.7821655 10.3651429,40.9785462 C10.848999,41.3058471 11.1680603,41.8601989 11.1680603,42.4873352 C11.1680603,42.4955749 11.166687,42.5038147 11.166687,42.5120544 Z M28.1222534,29.1412354 C28.1222534,29.0744018 28.1263733,29.0084838 28.1336975,28.9425659 C28.134613,28.9347839 28.134613,28.9265442 28.1355286,28.9187623 C28.1428528,28.8597107 28.1538391,28.8011169 28.1671143,28.7434387 C28.1698608,28.7297058 28.1726074,28.7155151 28.1762695,28.7017822 C28.1895446,28.6477662 28.2064819,28.5946655 28.2247924,28.5420227 C28.2302857,28.5264587 28.235321,28.510437 28.241272,28.4953308 C28.2609558,28.4440613 28.2833862,28.3937073 28.3076477,28.3442688 C28.316803,28.3255005 28.3255005,28.30719 28.3351136,28.2893372 C28.3410645,28.2774353 28.3479309,28.2659912 28.3538818,28.2545471 C28.3767701,28.2142639 28.4005737,28.1744385 28.4262084,28.1359863 C28.4298705,28.1304932 28.4330749,28.125 28.436737,28.1195068 C28.6637878,27.7857971 28.9993287,27.5317383 29.3916321,27.4067688 C29.3971253,27.4049378 29.4026184,27.4031067 29.4081116,27.4012757 C29.4621277,27.3847962 29.517517,27.3701477 29.573822,27.3587037 C29.5761108,27.3582458 29.5788574,27.3577881 29.5811462,27.3573304 C29.6315003,27.3472595 29.6827698,27.3399353 29.7344971,27.3339844 C29.7482299,27.3326111 29.7615052,27.33078 29.775238,27.3298645 C29.8301696,27.3248291 29.8855591,27.321167 29.941864,27.321167 C29.9977112,27.321167 30.0531006,27.3248291 30.1080322,27.3298645 C30.1217651,27.3312377 30.1350403,27.3326111 30.1487732,27.3339844 C30.2005005,27.3399353 30.2517701,27.3472595 30.302124,27.3573304 C30.3044128,27.3577881 30.3071595,27.3582458 30.3094482,27.3587037 C30.3657532,27.3701477 30.4211426,27.3847962 30.4751588,27.4012757 C30.4806518,27.4031067 30.4861451,27.4049378 30.4916381,27.4067688 C30.8843994,27.5317383 31.2194824,27.7857971 31.4469909,28.1195068 C31.4501953,28.125 31.4538574,28.1304932 31.4575195,28.1359863 C31.4831543,28.1744385 31.506958,28.2142639 31.5293884,28.2545471 C31.5357971,28.2659912 31.5426635,28.2774353 31.5486145,28.2893372 C31.5609741,28.3122253 31.5715027,28.336029 31.582489,28.3598327 C31.6012573,28.3987427 31.6186523,28.4381104 31.6346741,28.4779358 C31.6442871,28.502655 31.6534424,28.5273743 31.6616822,28.5525513 C31.6744995,28.5896302 31.6859436,28.6271667 31.6960144,28.6651611 C31.7033386,28.6921692 31.7106628,28.7187195 31.7170716,28.7457275 C31.725769,28.7864685 31.7326355,28.8272095 31.7385865,28.8684082 C31.7422486,28.8926696 31.7472839,28.9164734 31.7495728,28.9411927 C31.756897,29.0071106 31.7614746,29.0734863 31.7614746,29.1412354 C31.7614746,30.1446533 30.9448242,30.9613037 29.9414063,30.9613037 C28.938446,30.9613037 28.1222534,30.1446533 28.1222534,29.1412354 Z M29.941864,54.6176147 C28.938446,54.6176147 28.1222534,53.8014221 28.1222534,52.7980042 C28.1222534,52.4894714 28.1996155,52.199707 28.3351136,51.9451904 C28.3410645,51.9337464 28.3474732,51.9232178 28.3534241,51.9122314 C28.3763122,51.8710327 28.4005737,51.8302917 28.427124,51.7913818 C28.4298705,51.7863464 28.4330749,51.7817688 28.4362793,51.7767334 C28.6637878,51.4425659 28.9993287,51.1880494 29.3920898,51.0630798 C29.3971253,51.0617065 29.4026184,51.0598755 29.4076538,51.0580444 C29.4621277,51.041565 29.517517,51.0269166 29.573822,51.0154724 C29.5761108,51.0150146 29.5788574,51.0145569 29.5811462,51.0140991 C29.6315003,51.0040283 29.6827698,50.9967041 29.7344971,50.9907532 C29.7482299,50.9889221 29.7615052,50.9875488 29.775238,50.9866334 C29.8301696,50.9815979 29.8855591,50.9779358 29.941864,50.9779358 C29.9977112,50.9779358 30.0531006,50.9815979 30.1080322,50.9866334 C30.1217651,50.9875488 30.1350403,50.9889221 30.1487732,50.9907532 C30.2005005,50.9967041 30.2522278,51.0040283 30.3025818,51.0140991 C30.3048705,51.0145569 30.3071595,51.0150146 30.3094482,51.0154724 C30.3657532,51.0269166 30.4211426,51.041565 30.4756165,51.0580444 C30.4811096,51.0598755 30.4861451,51.0617065 30.4911804,51.0630798 C30.8843994,51.1880494 31.2199402,51.4425659 31.4469909,51.7767334 C31.4501953,51.7817688 31.4533997,51.7863464 31.4566041,51.7913818 C31.4826966,51.8307495 31.506958,51.8710327 31.530304,51.9122314 C31.5362549,51.9232178 31.5422058,51.9337464 31.5481568,51.9451904 C31.6841126,52.199707 31.7614746,52.4899291 31.7614746,52.7980042 C31.7619323,53.8014221 30.945282,54.6176147 29.941864,54.6176147 Z" id="Shape"></path>
        </g>
    </g>
</svg>